<svg xmlns="http://www.w3.org/2000/svg" width="512" height="512"><path fill="#fdbae4" d="M45.993 238.721h420.015v246.307H45.993z"/><path d="M98.393 144.213c-6.965-.016-12.614 5.634-12.598 12.6v59.158h-6.748c-30.286 0-54.858 24.568-54.858 54.855v178.135c0 30.286 24.57 54.855 54.858 54.855h353.906c30.286 0 54.858-24.57 54.858-54.855V270.826c0-30.286-24.57-54.855-54.858-54.855h-288.08v-59.159c.016-6.965-5.634-12.614-12.598-12.6zm-30.721 107.51h376.656c7.06-.015 12.784 5.713 12.768 12.771v190.803c.016 7.058-5.71 12.784-12.768 12.77H67.672c-7.058.014-12.784-5.712-12.768-12.77V264.492c0-7.073 5.695-12.77 12.768-12.77zM414.477 395.3c0 21.592-17.504 39.096-39.096 39.096-21.592 0-39.097-17.504-39.097-39.096 0-21.593 17.504-39.098 39.097-39.097 21.593 0 39.097 17.504 39.096 39.097zM114.901 292.78h148.563c6.98 0 12.6 5.62 12.6 12.6v11.29c0 6.98-5.62 12.6-12.6 12.6H114.9c-6.98 0-12.6-5.62-12.6-12.6v-11.29c0-6.98 5.62-12.6 12.6-12.6zm0 53.866h148.563c6.98 0 12.6 5.619 12.6 12.599v11.292c0 6.98-5.62 12.6-12.6 12.6H114.9c-6.98 0-12.6-5.62-12.6-12.6v-11.292c0-6.98 5.62-12.6 12.6-12.6zm209.746-291.99A159.279 159.279 0 00203.784 8.405v40.242a119.001 119.001 0 0192.385 34.49 119.001 119.001 0 0134.505 91.09h40.28a159.28 159.28 0 00-46.305-119.57zm-113.1 15.06c-2.593.04-5.184.185-7.765.433v32.997a64.744 64.744 0 0154.022 18.355 64.744 64.744 0 0118.565 52.723h33.118a96.834 96.834 0 00-28.025-76.227 96.834 96.834 0 00-69.915-28.281zm.906 54.724a41.971 41.971 0 00-8.671 1.04v36.144c0 6.98 5.62 12.6 12.6 12.6h37.92a41.973 41.973 0 00-11.552-37.504 41.973 41.973 0 00-30.297-12.28z"/></svg>