<svg xmlns="http://www.w3.org/2000/svg" viewBox="0 0 512 512"><path d="M125.143 26.427c-22.893 0-41.323 18.43-41.323 41.323v376.5c0 22.893 18.43 41.323 41.323 41.323h261.714c22.893 0 41.323-18.43 41.323-41.323V163.267c0-22.893-114.851-136.84-137.744-136.84h-96.134z" fill="#c4e8fa"/><path d="M138.207 70.587a8.48 8.48 0 00-8.48 8.48V96.03a8.48 8.48 0 008.48 8.48h76.15a8.48 8.48 0 008.48-8.48V79.068a8.48 8.48 0 00-8.48-8.481zm0 84a8.48 8.48 0 00-8.48 8.48v16.962a8.48 8.48 0 008.48 8.48h76.15a8.48 8.48 0 008.48-8.48v-16.961a8.48 8.48 0 00-8.48-8.481zm0 84a8.48 8.48 0 00-8.48 8.48v16.962a8.48 8.48 0 008.48 8.48h125.605a8.48 8.48 0 008.48-8.48v-16.961a8.48 8.48 0 00-8.48-8.481zm0 169.613a8.48 8.48 0 00-8.48 8.48v16.961a8.48 8.48 0 008.48 8.48h79.163a8.48 8.48 0 008.48-8.48V416.68a8.48 8.48 0 00-8.48-8.48zm0-84.807a8.48 8.48 0 00-8.48 8.48v16.962a8.48 8.48 0 008.48 8.48h125.605a8.48 8.48 0 008.48-8.48v-16.961a8.48 8.48 0 00-8.48-8.48zm246.361-103.959l-67.898 25.088a13.186 13.186 0 00-9.234 12.571v141.14a57.272 57.272 0 00-13.186-1.614c-21.84 0-39.559 11.809-39.559 26.371s17.72 26.373 39.559 26.373c21.84 0 39.558-11.81 39.558-26.373V293.277l50.76-19.953zM113.5 6c-24.93 0-45 20.07-45 45v410c0 24.93 20.07 45 45 45h285c24.93 0 45-20.07 45-45V155.016C443.5 130.086 318.43 6 293.5 6H188.812zm12.766 31.25H256V148.5c0 24.93 20.07 45 45 45h111.25v254.734a26.457 26.457 0 01-26.514 26.516h-259.47a26.459 26.459 0 01-26.516-26.516V63.764a26.457 26.457 0 0126.516-26.514zm160.984 0h.049c14.69 0 124.951 109.59 124.951 124.28v.72h-98.484a26.459 26.459 0 01-26.516-26.516z"/></svg>