<svg xmlns="http://www.w3.org/2000/svg" width="512" height="512"><path fill="#bca8ff" d="M21.662 21.662h468.677v468.677H21.662z"/><path d="M256 97.797c-87.394 0-158.203 70.809-158.203 158.203S168.606 414.203 256 414.203 414.203 343.394 414.203 256 343.394 97.797 256 97.797zM153.934 256H133.52c0-67.555 54.925-122.48 122.48-122.48v20.413c-56.264 0-102.067 45.803-102.067 102.067zM256 317.24c-33.81 0-61.24-27.43-61.24-61.24s27.43-61.24 61.24-61.24 61.24 27.43 61.24 61.24-27.43 61.24-61.24 61.24zm0-81.653c-11.291 0-20.413 9.122-20.413 20.413s9.122 20.413 20.413 20.413 20.413-9.122 20.413-20.413-9.122-20.413-20.413-20.413zM54.857 0C24.572 0 0 24.572 0 54.857v402.286C0 487.428 24.572 512 54.857 512h402.284c30.285 0 54.857-24.572 54.857-54.857V54.857C511.998 24.572 487.426 0 457.141 0zM32.021 32.021h447.956V479.98H32.02z"/></svg>