<svg xmlns="http://www.w3.org/2000/svg" width="512" height="512"><path d="m 79.295,92.889 c -22.521,0 -40.777,18.256 -40.777,40.777 v 244.668 c 0,22.521 18.256,40.777 40.777,40.777 h 353.41 c 22.521,0 40.777,-18.256 40.777,-40.777 V 188.037 c 0,-22.521 -18.256,-40.78 -40.777,-40.78 H 269.592 l -46.41,-46.41 a 27.184,27.184 0 0 0 -19.225,-7.958 z" fill="#bca8ff"/><path d="M 432.705,147.259 H 269.593 l -46.41,-46.41 A 27.186,27.186 0 0 0 203.957,92.888 H 79.295 c -22.521,0 -40.778,18.257 -40.778,40.778 v 244.668 c 0,22.521 18.257,40.778 40.778,40.778 h 353.41 c 22.521,0 40.778,-18.257 40.778,-40.778 V 188.037 c 0,-22.522 -18.257,-40.778 -40.778,-40.778 z m 0,231.075 H 79.295 V 133.666 h 119.038 l 46.41,46.41 a 27.186,27.186 0 0 0 19.226,7.96 h 168.736 z"/></svg>