<svg xmlns="http://www.w3.org/2000/svg" width="512" height="512"><path d="M 45.993,238.72122 H 466.008 V 485.02801 H 45.993 Z" fill="#fdbae4"/><path d="m 98.393,144.21329 c -6.965,-0.016 -12.614,5.63401 -12.598,12.6 v 59.15795 h -6.748 c -30.286,0 -54.858,24.56798 -54.858,54.85495 v 178.13486 c 0,30.28597 24.57,54.85495 54.858,54.85495 h 353.906 c 30.286,0 54.858,-24.56998 54.858,-54.85495 V 270.82619 c 0,-30.28597 -24.57,-54.85495 -54.858,-54.85495 h -288.08 v -59.15895 c 0.016,-6.96499 -5.634,-12.61399 -12.598,-12.6 z M 67.672,251.72321 h 376.656 c 7.06,-0.015 12.784,5.71299 12.768,12.77099 v 190.80284 c 0.016,7.058 -5.71,12.78399 -12.768,12.76999 H 67.672 c -7.058,0.014 -12.784,-5.71199 -12.768,-12.76999 V 264.4922 c 0,-7.073 5.695,-12.76999 12.768,-12.76999 z m 346.805,143.57688 c 0,21.59198 -17.504,39.09597 -39.096,39.09597 -21.592,0 -39.097,-17.50399 -39.097,-39.09597 0,-21.59298 17.504,-39.09797 39.097,-39.09697 21.593,0 39.097,17.50399 39.096,39.09697 z M 114.901,292.78018 h 148.563 c 6.98,0 12.6,5.62 12.6,12.59999 v 11.28999 c 0,6.97999 -5.62,12.59999 -12.6,12.59999 H 114.9 c -6.98,0 -12.6,-5.62 -12.6,-12.59999 v -11.28999 c 0,-6.97999 5.62,-12.59999 12.6,-12.59999 z m 0,53.86595 h 148.563 c 6.98,0 12.6,5.619 12.6,12.59899 v 11.29199 c 0,6.97999 -5.62,12.59999 -12.6,12.59999 H 114.9 c -6.98,0 -12.6,-5.62 -12.6,-12.59999 v -11.29199 c 0,-6.97999 5.62,-12.59999 12.6,-12.59999 z M 324.647,54.656372 A 159.279,159.27886 0 0 0 203.784,8.4054106 V 48.647377 a 119.001,119.0009 0 0 1 92.385,34.489972 119.001,119.0009 0 0 1 34.505,91.089921 h 40.28 A 159.28,159.27986 0 0 0 324.649,54.657372 Z m -113.1,15.059988 c -2.593,0.04 -5.184,0.185 -7.765,0.432999 v 32.996971 a 64.744,64.743946 0 0 1 54.022,18.35499 64.744,64.743946 0 0 1 18.565,52.72295 h 33.118 A 96.834,96.83392 0 0 0 281.462,97.997337 96.834,96.83392 0 0 0 211.547,69.71636 Z m 0.906,54.72395 a 41.971,41.970965 0 0 0 -8.671,1.04 v 36.14397 c 0,6.97999 5.62,12.59999 12.6,12.59999 h 37.92 a 41.973,41.972965 0 0 0 -11.552,-37.50396 41.973,41.972965 0 0 0 -30.297,-12.28 z"/></svg>