<svg xmlns="http://www.w3.org/2000/svg" viewBox="0 0 512 512"><path d="m 125.143,26.427 c -22.893,0 -41.323,18.43 -41.323,41.323 v 376.5 c 0,22.893 18.43,41.323 41.323,41.323 h 261.714 c 22.893,0 41.323,-18.43 41.323,-41.323 V 163.267 c 0,-22.893 -114.851,-136.84 -137.744,-136.84 h -96.134 z" fill="#d2fac4"/><path d="m 306.047,240.718 -43.965,12.984 a 11.941,11.941 0 0 0 -8.363,11.386 v 127.82 a 51.866,51.866 0 0 0 -11.941,-1.462 c -19.779,0 -35.826,10.694 -35.826,23.882 0,13.188 16.047,23.884 35.826,23.884 19.778,0 35.825,-10.696 35.825,-23.884 V 297.856 l 28.445,-8.333 z M 113.5,6 c -24.93,0 -45,20.07 -45,45 v 410 c 0,24.93 20.07,45 45,45 h 285 c 24.93,0 45,-20.07 45,-45 V 155.016 C 443.5,130.086 318.43,6 293.5,6 H 188.812 Z m 12.766,31.25 H 256 V 148.5 c 0,24.93 20.07,45 45,45 H 412.25 V 448.234 A 26.457,26.457 0 0 1 385.736,474.75 H 126.266 A 26.459,26.459 0 0 1 99.75,448.234 V 63.764 A 26.457,26.457 0 0 1 126.266,37.25 Z m 160.984,0 h 0.049 c 14.69,0 124.951,109.59 124.951,124.28 v 0.72 H 313.766 A 26.459,26.459 0 0 1 287.25,135.734 Z"/></svg>