<svg xmlns="http://www.w3.org/2000/svg" width="512" height="512"><path d="M 21.662085,21.662 H 490.34092 V 490.339 H 21.662085 Z" fill="#b8fff4"/><path d="M 54.857214,0 C 24.572096,0 0,24.572 0,54.857 V 457.143 C 0,487.428 24.572096,512 54.857214,512 H 457.14279 C 487.4279,512 512,487.428 512,457.143 V 54.857 C 512,24.572 487.4279,0 457.14279,0 Z M 32.021125,32.021 H 479.97887 v 447.96 H 32.020125 Z m 332.670295,80.505 a 17.93507,17.935 0 0 0 -12.42404,5.253 l -25.94011,25.967 a 19.695077,19.695 0 0 0 -4.78001,7.728 l -6.81603,20.464 -42.74217,42.743 c -6.81502,-4.91 -14.29205,-8.823 -22.47509,-10.728 -18.74807,-4.361 -37.55214,-0.494 -50.37619,12.33 a 46.212181,46.212 0 0 0 -11.34505,18.76 c -3.36301,10.402 -13.00905,18.322 -23.62409,19.314 -13.28405,1.272 -25.6311,6.417 -35.09214,15.94 -25.5801,25.507 -20.97808,71.467 10.11704,102.545 31.09613,31.08 77.0213,35.62 102.5574,10.129 9.52804,-9.461 14.66306,-21.803 15.94707,-35.148 0.986,-10.566 8.90503,-20.25 19.29607,-23.62 a 46.296181,46.296 0 0 0 18.76508,-11.349 c 12.81905,-12.823 16.66906,-31.588 12.33004,-50.302 -1.9,-8.206 -5.81002,-15.694 -10.73704,-22.532 l 42.73017,-42.73 20.44608,-6.817 a 19.695077,19.695 0 0 0 7.73003,-4.78 l 25.9671,-25.962 a 17.93507,17.935 0 0 0 0.016,-25.346 l -16.60606,-16.606 a 17.93507,17.935 0 0 0 -12.94406,-5.253 z M 227.98789,256.033 a 26.903105,26.903 0 0 1 28.02311,26.88 26.903105,26.903 0 0 1 -26.90411,26.904 26.903105,26.903 0 0 1 -1.12,-53.784 z"/></svg>