<svg xmlns="http://www.w3.org/2000/svg" viewBox="0 0 512 512"><path fill="#d2fac4" d="M125.143 26.427c-22.893 0-41.323 18.43-41.323 41.323v376.5c0 22.893 18.43 41.323 41.323 41.323h261.714c22.893 0 41.323-18.43 41.323-41.323V163.267c0-22.893-114.851-136.84-137.744-136.84h-96.134z"/><path d="M306.047 240.718l-43.965 12.984a11.941 11.941 0 00-8.363 11.386v127.82a51.866 51.866 0 00-11.941-1.462c-19.779 0-35.826 10.694-35.826 23.882s16.047 23.884 35.826 23.884c19.778 0 35.825-10.696 35.825-23.884V297.856l28.445-8.333zM113.5 6c-24.93 0-45 20.07-45 45v410c0 24.93 20.07 45 45 45h285c24.93 0 45-20.07 45-45V155.016C443.5 130.086 318.43 6 293.5 6H188.812zm12.766 31.25H256V148.5c0 24.93 20.07 45 45 45h111.25v254.734a26.457 26.457 0 01-26.514 26.516h-259.47a26.459 26.459 0 01-26.516-26.516V63.764a26.457 26.457 0 0126.516-26.514zm160.984 0h.049c14.69 0 124.951 109.59 124.951 124.28v.72h-98.484a26.459 26.459 0 01-26.516-26.516z"/></svg>