<svg xmlns="http://www.w3.org/2000/svg" width="512" height="512"><path d="M21.662 21.662h468.677v468.677H21.662z" fill="#b8fff4"/><path d="M54.857 0C24.572 0 0 24.572 0 54.857v402.286C0 487.428 24.572 512 54.857 512h402.284c30.285 0 54.857-24.572 54.857-54.857V54.857C511.998 24.572 487.426 0 457.141 0zM32.021 32.021h447.956v447.96H32.02zm332.669 80.505a17.935 17.935 0 00-12.424 5.253l-25.94 25.967a19.695 19.695 0 00-4.78 7.728l-6.816 20.464-42.742 42.743c-6.815-4.91-14.292-8.823-22.475-10.728-18.748-4.361-37.552-.494-50.376 12.33a46.212 46.212 0 00-11.345 18.76c-3.363 10.402-13.009 18.322-23.624 19.314-13.284 1.272-25.631 6.417-35.092 15.94-25.58 25.507-20.978 71.467 10.117 102.545 31.096 31.08 77.021 35.62 102.557 10.129 9.528-9.461 14.663-21.803 15.947-35.148.986-10.566 8.905-20.25 19.296-23.62a46.296 46.296 0 0018.765-11.349c12.819-12.823 16.669-31.588 12.33-50.302-1.9-8.206-5.81-15.694-10.737-22.532l42.73-42.73 20.446-6.817a19.695 19.695 0 007.73-4.78l25.967-25.962a17.935 17.935 0 00.016-25.346l-16.606-16.606a17.935 17.935 0 00-12.944-5.253zM227.987 256.033a26.903 26.903 0 0128.023 26.88 26.903 26.903 0 01-26.904 26.904 26.903 26.903 0 01-1.12-53.784z"/></svg>