<svg xmlns="http://www.w3.org/2000/svg" width="512" height="512"><path d="M 21.662085,21.662 H 490.34092 V 490.339 H 21.662085 Z" fill="#fdf6ba"/><path d="m 153.6006,402.286 h 204.8008 c 14.17106,0 25.6001,-9.829 25.6001,-21.943 V 358.4 c 0,-36.343 -34.40013,-65.829 -76.8003,-65.829 -12.34305,0 -21.37108,9.143 -51.2002,9.143 -30.74312,0 -38.17115,-9.143 -51.2002,-9.143 -42.40017,0 -76.8003,29.486 -76.8003,65.829 v 21.943 c 0,12.114 11.42904,21.943 25.6001,21.943 z M 256.001,256 c 40.34316,0 73.14329,-32.8 73.14329,-73.143 0,-40.343 -32.80013,-73.143 -73.14329,-73.143 -40.34316,0 -73.14329,32.8 -73.14329,73.143 0,40.343 32.80013,73.143 73.14329,73.143 z M 54.857214,0 C 24.572096,0 0,24.572 0,54.857 V 457.143 C 0,487.428 24.572096,512 54.857214,512 H 457.14279 C 487.4279,512 512,487.428 512,457.143 V 54.857 C 512,24.572 487.4279,0 457.14279,0 Z M 32.021125,32.021 H 479.97887 V 479.98 H 32.020125 Z"/></svg>