<svg xmlns="http://www.w3.org/2000/svg" viewBox="0 0 512 512"><path d="M431.905 147.75H269.53l-46.2-46.2a27.063 27.063 0 00-19.138-7.924H80.095c-22.42 0-40.593 18.174-40.593 40.594v243.56c0 22.42 18.174 40.594 40.593 40.594h351.81c22.42 0 40.593-18.174 40.593-40.594V188.344c0-22.42-18.174-40.593-40.593-40.593z" fill="#ffc028"/><path d="M451 136H271l-51.216-51.216A30.001 30.001 0 00198.57 76H61c-24.853 0-45 20.147-45 45v270c0 24.853 20.147 45 45 45h390c24.853 0 45-20.147 45-45V181c0-24.853-20.147-45-45-45zm0 255H61V121h131.363l51.215 51.216A30.001 30.001 0 00264.794 181H451z"/></svg>