<svg xmlns="http://www.w3.org/2000/svg" width="512" height="512"><path fill="#fdf6ba" d="M21.662 21.662h468.677v468.677H21.662z"/><path d="M153.6 402.286h204.8c14.171 0 25.6-9.829 25.6-21.943V358.4c0-36.343-34.4-65.829-76.8-65.829-12.343 0-21.371 9.143-51.2 9.143-30.743 0-38.171-9.143-51.2-9.143-42.4 0-76.8 29.486-76.8 65.829v21.943c0 12.114 11.429 21.943 25.6 21.943zM256 256c40.343 0 73.143-32.8 73.143-73.143s-32.8-73.143-73.143-73.143-73.143 32.8-73.143 73.143S215.657 256 256 256zM54.857 0C24.572 0 0 24.572 0 54.857v402.286C0 487.428 24.572 512 54.857 512h402.284c30.285 0 54.857-24.572 54.857-54.857V54.857C511.998 24.572 487.426 0 457.141 0zM32.021 32.021h447.956V479.98H32.02z"/></svg>