<svg xmlns="http://www.w3.org/2000/svg" viewBox="0 0 512 512"><path d="m 125.143,26.427 c -22.893,0 -41.323,18.43 -41.323,41.323 v 376.5 c 0,22.893 18.43,41.323 41.323,41.323 h 261.714 c 22.893,0 41.323,-18.43 41.323,-41.323 V 163.267 c 0,-22.893 -114.851,-136.84 -137.744,-136.84 h -96.134 z" fill="#c4e8fa"/><path d="m 138.207,70.587 a 8.48,8.48 0 0 0 -8.48,8.48 V 96.03 a 8.48,8.48 0 0 0 8.48,8.48 h 76.15 a 8.48,8.48 0 0 0 8.48,-8.48 V 79.068 a 8.48,8.48 0 0 0 -8.48,-8.481 z m 0,84 a 8.48,8.48 0 0 0 -8.48,8.48 v 16.962 a 8.48,8.48 0 0 0 8.48,8.48 h 76.15 a 8.48,8.48 0 0 0 8.48,-8.48 v -16.961 a 8.48,8.48 0 0 0 -8.48,-8.481 z m 0,84 a 8.48,8.48 0 0 0 -8.48,8.48 v 16.962 a 8.48,8.48 0 0 0 8.48,8.48 h 125.605 a 8.48,8.48 0 0 0 8.48,-8.48 v -16.961 a 8.48,8.48 0 0 0 -8.48,-8.481 z m 0,169.613 a 8.48,8.48 0 0 0 -8.48,8.48 v 16.961 a 8.48,8.48 0 0 0 8.48,8.48 h 79.163 a 8.48,8.48 0 0 0 8.48,-8.48 V 416.68 a 8.48,8.48 0 0 0 -8.48,-8.48 z m 0,-84.807 a 8.48,8.48 0 0 0 -8.48,8.48 v 16.962 a 8.48,8.48 0 0 0 8.48,8.48 h 125.605 a 8.48,8.48 0 0 0 8.48,-8.48 v -16.961 a 8.48,8.48 0 0 0 -8.48,-8.48 z M 384.568,219.434 316.67,244.522 a 13.186,13.186 0 0 0 -9.234,12.571 v 141.14 a 57.272,57.272 0 0 0 -13.186,-1.614 c -21.84,0 -39.559,11.809 -39.559,26.371 0,14.562 17.72,26.373 39.559,26.373 21.84,0 39.558,-11.81 39.558,-26.373 V 293.277 l 50.76,-19.953 z M 113.5,6 c -24.93,0 -45,20.07 -45,45 v 410 c 0,24.93 20.07,45 45,45 h 285 c 24.93,0 45,-20.07 45,-45 V 155.016 C 443.5,130.086 318.43,6 293.5,6 H 188.812 Z m 12.766,31.25 H 256 V 148.5 c 0,24.93 20.07,45 45,45 H 412.25 V 448.234 A 26.457,26.457 0 0 1 385.736,474.75 H 126.266 A 26.459,26.459 0 0 1 99.75,448.234 V 63.764 A 26.457,26.457 0 0 1 126.266,37.25 Z m 160.984,0 h 0.049 c 14.69,0 124.951,109.59 124.951,124.28 v 0.72 H 313.766 A 26.459,26.459 0 0 1 287.25,135.734 Z"/></svg>