<?xml version="1.0" encoding="UTF-8" standalone="no"?>
<!-- Generator: Adobe Illustrator 24.1.2, SVG Export Plug-In . SVG Version: 6.00 Build 0)  -->

<svg
   xmlns:dc="http://purl.org/dc/elements/1.1/"
   xmlns:cc="http://creativecommons.org/ns#"
   xmlns:rdf="http://www.w3.org/1999/02/22-rdf-syntax-ns#"
   xmlns:svg="http://www.w3.org/2000/svg"
   xmlns="http://www.w3.org/2000/svg"
   xmlns:sodipodi="http://sodipodi.sourceforge.net/DTD/sodipodi-0.dtd"
   xmlns:inkscape="http://www.inkscape.org/namespaces/inkscape"
   version="1.1"
   x="0px"
   y="0px"
   viewBox="0 0 1000 1000"
   style="enable-background:new 0 0 1000 1000;"
   xml:space="preserve"
   id="svg26"
   sodipodi:docname="icon.svg"
   inkscape:version="0.92.4 (5da689c313, 2019-01-14)"><metadata
   id="metadata32"><rdf:RDF><cc:Work
       rdf:about=""><dc:format>image/svg+xml</dc:format><dc:type
         rdf:resource="http://purl.org/dc/dcmitype/StillImage" /><dc:title></dc:title></cc:Work></rdf:RDF></metadata><defs
   id="defs30">
	
	
	
	

		
		
		
		
	</defs><sodipodi:namedview
   pagecolor="#ffffff"
   bordercolor="#666666"
   borderopacity="1"
   objecttolerance="10"
   gridtolerance="10"
   guidetolerance="10"
   inkscape:pageopacity="0"
   inkscape:pageshadow="2"
   inkscape:window-width="640"
   inkscape:window-height="480"
   id="namedview28"
   showgrid="false"
   inkscape:zoom="0.47835774"
   inkscape:cx="198.24938"
   inkscape:cy="517.55094"
   inkscape:current-layer="svg26" />
<style
   type="text/css"
   id="style2">
	.st0{fill:#1A8B5F;}
	.st1{fill:#E9BC0F;}
	.st2{fill:#31FFA6;}
</style>

<path
   style="fill:#e9bc0f;stroke:#826908;stroke-opacity:1;stroke-width:3.1;stroke-miterlimit:4;stroke-dasharray:none"
   d="M 116.03906 221.09961 L 395.7207 683.83008 L 395.7207 933 L 527.92969 933 L 527.92969 681.80078 L 806.58984 221.09961 L 775.49023 221.09961 L 711.17969 221.76953 L 675.57031 222.49023 L 465.89062 567.89062 L 257.41016 221.09961 L 116.03906 221.09961 z M 401.2793 752.61914 L 429.76953 752.61914 L 429.76953 818.25977 C 429.76953 829.19977 432.23969 837.36977 437.17969 842.75977 C 442.11969 848.15977 449.13977 850.84961 458.25977 850.84961 C 468.43977 850.84961 476.5293 847.70063 482.5293 841.39062 C 488.5293 835.09063 491.5293 826.01016 491.5293 814.16016 L 491.5293 752.63086 L 520.01953 752.63086 L 520.01953 874.32031 L 492.90039 874.32031 L 492.90039 858.82031 C 488.34039 864.29031 482.64055 868.5107 475.81055 871.4707 C 468.97055 874.4307 461.59922 875.91016 453.69922 875.91016 C 437.43922 875.91016 424.64078 871.38961 415.30078 862.34961 C 405.96078 853.30961 401.2793 839.90086 401.2793 822.13086 L 401.2793 752.61914 z "
   id="polygon11" /><circle
   style="fill:#1a8b5f"
   id="circle9"
   r="173.06"
   cy="221.06"
   cx="731.83002"
   class="st0" /><path
   class="st1"
   d="m 352.29,764.59 c 8.96,8.89 13.45,22.22 13.45,40 v 69.74 h -28.49 v -66.09 c 0,-10.63 -2.36,-18.65 -7.06,-24.04 -4.71,-5.39 -11.47,-8.09 -20.28,-8.09 -9.57,0 -17.25,3.15 -23.02,9.46 -5.78,6.31 -8.66,15.31 -8.66,27.01 v 61.76 h -28.49 v -66.09 c 0,-10.63 -2.36,-18.65 -7.06,-24.04 -4.71,-5.39 -11.47,-8.09 -20.28,-8.09 -9.73,0 -17.43,3.12 -23.13,9.34 -5.7,6.23 -8.55,15.27 -8.55,27.12 v 61.76 h -28.49 v -121.7 h 27.12 v 15.5 c 4.56,-5.47 10.26,-9.65 17.09,-12.54 6.84,-2.88 14.43,-4.33 22.79,-4.33 9.12,0 17.21,1.71 24.27,5.13 7.06,3.42 12.65,8.47 16.75,15.16 5.01,-6.38 11.47,-11.36 19.37,-14.93 7.9,-3.57 16.64,-5.36 26.21,-5.36 15.34,-0.02 27.49,4.43 36.46,13.32 z"
   id="path15"
   inkscape:connector-curvature="0"
   style="fill:#e9bc0f;stroke:#7e6508;stroke-opacity:1;stroke-width:3;stroke-miterlimit:4;stroke-dasharray:none" /><path
   class="st1"
   d="m 566.06,872.04 c -9.42,-2.58 -16.94,-5.85 -22.56,-9.8 l 10.94,-21.65 c 5.47,3.65 12.04,6.57 19.71,8.77 7.67,2.2 15.23,3.3 22.68,3.3 17.01,0 25.53,-4.48 25.53,-13.45 0,-4.25 -2.17,-7.21 -6.5,-8.89 -4.33,-1.67 -11.28,-3.27 -20.85,-4.79 -10.03,-1.52 -18.2,-3.27 -24.5,-5.24 -6.31,-1.97 -11.78,-5.43 -16.41,-10.37 -4.64,-4.94 -6.95,-11.81 -6.95,-20.62 0,-11.54 4.82,-20.77 14.47,-27.69 9.65,-6.91 22.68,-10.37 39.08,-10.37 8.35,0 16.71,0.95 25.07,2.85 8.35,1.9 15.19,4.44 20.51,7.63 l -10.94,21.65 c -10.33,-6.07 -21.96,-9.12 -34.87,-9.12 -8.36,0 -14.7,1.25 -19.03,3.76 -4.33,2.51 -6.5,5.81 -6.5,9.91 0,4.56 2.31,7.79 6.95,9.69 4.63,1.9 11.81,3.69 21.54,5.36 9.72,1.52 17.7,3.27 23.93,5.24 6.23,1.98 11.58,5.32 16.07,10.03 4.48,4.71 6.72,11.39 6.72,20.06 0,11.39 -4.94,20.51 -14.81,27.35 -9.88,6.84 -23.32,10.26 -40.34,10.26 -9.88,0.01 -19.53,-1.29 -28.94,-3.87 z"
   id="path19"
   inkscape:connector-curvature="0"
   style="fill:#e9bc0f;stroke:#7e6508;stroke-opacity:1;stroke-width:3;stroke-miterlimit:4;stroke-dasharray:none" /><path
   class="st1"
   d="m 788.71,822.59 h -95.49 c 1.67,8.97 6.04,16.07 13.1,21.31 7.07,5.24 15.84,7.86 26.32,7.86 13.37,0 24.39,-4.4 33.05,-13.22 l 15.27,17.55 c -5.47,6.54 -12.38,11.47 -20.74,14.81 -8.36,3.34 -17.78,5.01 -28.26,5.01 -13.37,0 -25.15,-2.66 -35.32,-7.98 -10.18,-5.32 -18.04,-12.72 -23.59,-22.22 -5.55,-9.49 -8.32,-20.24 -8.32,-32.25 0,-11.85 2.7,-22.52 8.09,-32.02 5.39,-9.49 12.88,-16.9 22.45,-22.22 9.57,-5.32 20.36,-7.98 32.36,-7.98 11.85,0 22.45,2.62 31.79,7.86 9.34,5.24 16.64,12.61 21.88,22.11 5.24,9.5 7.86,20.48 7.86,32.93 0.01,1.99 -0.14,4.8 -0.45,8.45 z M 704.5,782.14 c -6.31,5.39 -10.14,12.57 -11.51,21.54 h 69.05 c -1.22,-8.81 -4.94,-15.95 -11.17,-21.42 -6.23,-5.47 -13.98,-8.21 -23.25,-8.21 -9.1,-0.01 -16.81,2.69 -23.12,8.09 z"
   id="path21"
   inkscape:connector-curvature="0"
   style="fill:#e9bc0f;stroke:#7e6508;stroke-opacity:1;stroke-width:3;stroke-miterlimit:4;stroke-dasharray:none" />
<path
   sodipodi:type="star"
   style="opacity:1;fill:#31ffa6;fill-opacity:1;stroke:none;stroke-width:12.00200748;stroke-miterlimit:4;stroke-dasharray:none;stroke-dashoffset:0;stroke-opacity:1"
   id="path857"
   sodipodi:sides="3"
   sodipodi:cx="731.0895"
   sodipodi:cy="221.06"
   sodipodi:r1="120.02924"
   sodipodi:r2="60.014614"
   sodipodi:arg1="0"
   sodipodi:arg2="1.0471976"
   inkscape:flatsided="false"
   inkscape:rounded="0"
   inkscape:randomized="0"
   d="m 851.11872,221.06 -90.02194,51.97418 -90.02192,51.97419 0,-103.94838 0,-103.94837 90.02193,51.9742 z"
   inkscape:transform-center-x="-30.007327"
   inkscape:transform-center-y="1.1323418e-05" /></svg>