<svg xmlns="http://www.w3.org/2000/svg" viewBox="0 0 512 512"><path d="M160.063 1.006c-11.479-.262-23.077 7.77-23.077 22.527V95H64c-35.3 0-64 28.7-64 64v288c0 35.3 28.7 64 64 64h384c35.3 0 64-28.7 64-64V159c0-35.3-28.7-64-64-64h-56.059v53.037h51.022c8.8 0 16 7.2 16 16v277.924c0 8.8-7.2 16-16 16H69.037c-8.8 0-16-7.2-16-16V164.037c0-8.8 7.2-16 16-16h67.95v71.367c0 17.652 19.157 28.292 34.08 19.442l165.699-97.912c14.78-8.71 14.828-30.174 0-38.883l-165.7-97.959c-3.365-1.989-7.177-2.998-11.004-3.086z" fill="#bebebe"/><path d="M317.16 218.158v217.12h-59.995V293.005q-14.562 11.067-28.25 17.912-13.543 6.844-34.075 13.105v-48.637q30.289-9.756 47.035-23.445 16.746-13.688 26.211-33.783z" fill="#bebebe"/></svg>
