<svg xmlns="http://www.w3.org/2000/svg" width="512" height="512"><path d="M 201.146,365.714 H 146.288 V 18.286001 A 18.286,18.286 0 0 0 128.003,9.4767832e-8 H 91.43 A 18.286,18.286 0 0 0 73.145,18.286001 V 365.714 H 18.288 c -16.217,0 -24.411,19.703 -12.902,31.212 L 96.814,506.64 a 18.286,18.286 0 0 0 25.852,0 l 91.428,-109.714 c 11.452,-11.486 3.303,-31.212 -12.948,-31.212 z M 475.431,292.571 H 329.146 a 18.286,18.286 0 0 0 -18.286,18.286 v 36.572 a 18.286,18.286 0 0 0 18.286,18.285 h 64 l -70.012,80.515 a 36.571,36.571 0 0 0 -12.274,27.337 v 20.148 A 18.286,18.286 0 0 0 329.146,512 H 475.43 a 18.286,18.286 0 0 0 18.286,-18.286 V 457.143 A 18.286,18.286 0 0 0 475.43,438.857 h -64 l 70.012,-80.514 a 36.571,36.571 0 0 0 12.274,-27.337 V 310.857 A 18.286,18.286 0 0 0 475.43,292.571 Z M 510.928,194.994 443.191,12.137 A 18.286,18.286 0 0 0 425.968,9.4767832e-8 h -47.36 A 18.286,18.286 0 0 0 361.386,12.137 l -67.738,182.857 a 18.286,18.286 0 0 0 17.212,24.435 h 28.377 a 18.286,18.286 0 0 0 17.406,-12.663 L 361.694,192 h 81.143 l 5.04,14.766 a 18.286,18.286 0 0 0 17.451,12.663 h 28.389 a 18.286,18.286 0 0 0 17.211,-24.435 z M 383.557,128 402.288,73.143 421.02,128 Z" fill="#bebebe"/></svg>