<svg xmlns="http://www.w3.org/2000/svg" width="512" height="512"><path d="M435.92 283.673l60.102-60.102c8.296-8.296 8.296-21.755 0-30.05l-30.051-30.052c-8.297-8.296-21.755-8.296-30.052 0l-60.102 60.102-60.102-60.102c-8.296-8.296-21.755-8.296-30.051 0l-30.051 30.051c-8.296 8.296-8.296 21.755 0 30.051l60.102 60.102-60.089 60.09c-8.296 8.296-8.296 21.754 0 30.05l30.051 30.052c8.296 8.296 21.755 8.296 30.051 0l60.09-60.09 60.101 60.103c8.297 8.296 21.755 8.296 30.052 0l30.05-30.051c8.297-8.297 8.297-21.755 0-30.051zM57.746 0C31.251.1 9.757 21.597 9.757 48.092v415.914c0 26.496 21.496 47.994 47.99 47.994h287.944c26.494 0 47.988-21.497 47.988-47.992v-81.884l-17.862-17.862-30.126 30.127v69.619H57.747V48.09h159.967v103.98a23.938 23.938 0 0023.998 23.994h10.87l22.838-22.839c6.918-6.917 16.095-10.374 25.27-10.374s18.35 3.457 25.268 10.374l49.86 49.86 17.861-17.863v-53.251c0-12.697-5.099-24.994-14.097-33.992l-83.88-83.883C286.702 5.1 274.504 0 261.805 0zm207.958 51.99l76.087 76.084h-76.088z"/></svg>