<svg xmlns="http://www.w3.org/2000/svg" viewBox="0 0 512 512"><path d="M 208.975,235.643 35.65,133.174 C 21.567,124.852 0,132.928 0,153.51 V 358.4 c 0,18.465 20.04,29.593 35.65,20.336 l 173.325,-102.42 c 15.462,-9.11 15.511,-31.563 0,-40.672 z M 512.075,0 372.217,41.301 a 36.207,36.207 0 0 0 -25.356,34.521 v 295.782 a 157.278,157.278 0 0 0 -36.207,-4.435 c -59.97,0 -108.624,32.429 -108.624,72.417 0,39.987 48.655,72.414 108.624,72.414 59.968,0 108.62,-32.427 108.62,-72.414 v -264.41 l 92.8,-27.187 z" fill="#bebebe"/></svg>