<svg xmlns="http://www.w3.org/2000/svg" width="512" height="512"><path d="m 170.223,209.291 v 105.991 c -6.55,-1.589 -14.117,-2.21 -20.854,-2.247 -33.122,0 -59.997,17.91 -59.997,39.997 0,22.085 26.875,39.997 59.997,39.997 33.122,0 59.904,-17.912 59.996,-39.997 l 0.604,-143.74 z m 265.696,74.382 60.103,-60.102 c 8.296,-8.296 8.296,-21.755 0,-30.05 l -30.051,-30.052 c -8.297,-8.296 -21.755,-8.296 -30.052,0 l -60.102,60.102 -60.102,-60.102 c -8.296,-8.296 -21.755,-8.296 -30.051,0 l -30.051,30.051 c -8.296,8.296 -8.296,21.755 0,30.051 l 60.102,60.102 -60.089,60.09 c -8.296,8.296 -8.296,21.754 0,30.05 l 30.051,30.052 c 8.296,8.296 21.755,8.296 30.051,0 l 60.09,-60.09 60.101,60.103 c 8.297,8.296 21.755,8.296 30.052,0 l 30.05,-30.051 c 8.297,-8.297 8.297,-21.755 0,-30.051 z M 57.747,0 C 31.251,0.1 9.757,21.597 9.757,48.092 v 415.914 c 0,26.496 21.496,47.994 47.99,47.994 h 287.944 c 26.494,0 47.988,-21.497 47.988,-47.992 v -81.884 l -17.862,-17.862 -30.126,30.127 v 69.619 H 57.747 V 48.09 h 159.967 v 103.98 a 23.938,23.938 0 0 0 23.998,23.994 h 10.87 l 22.838,-22.839 c 6.918,-6.917 16.095,-10.374 25.27,-10.374 9.175,0 18.35,3.457 25.268,10.374 l 49.86,49.86 17.861,-17.863 v -53.251 c 0,-12.697 -5.099,-24.994 -14.097,-33.992 L 295.702,14.096 C 286.702,5.1 274.504,0 261.805,0 Z m 207.958,51.99 76.087,76.084 h -76.088 z"/></svg>