<svg xmlns="http://www.w3.org/2000/svg" width="512" height="512"><path d="M201.146 365.714h-54.858V18.286A18.286 18.286 0 00128.003 0H91.43a18.286 18.286 0 00-18.285 18.286v347.428H18.288c-16.217 0-24.411 19.703-12.902 31.212L96.814 506.64a18.286 18.286 0 0025.852 0l91.428-109.714c11.452-11.486 3.303-31.212-12.948-31.212zm274.285-73.143H329.146a18.286 18.286 0 00-18.286 18.286v36.572a18.286 18.286 0 0018.286 18.285h64l-70.012 80.515a36.571 36.571 0 00-12.274 27.337v20.148A18.286 18.286 0 00329.146 512H475.43a18.286 18.286 0 0018.286-18.286v-36.571a18.286 18.286 0 00-18.286-18.286h-64l70.012-80.514a36.571 36.571 0 0012.274-27.337v-20.149a18.286 18.286 0 00-18.286-18.286zm35.497-97.577L443.191 12.137A18.286 18.286 0 00425.968 0h-47.36a18.286 18.286 0 00-17.222 12.137l-67.738 182.857a18.286 18.286 0 0017.212 24.435h28.377a18.286 18.286 0 0017.406-12.663L361.694 192h81.143l5.04 14.766a18.286 18.286 0 0017.451 12.663h28.389a18.286 18.286 0 0017.211-24.435zM383.557 128l18.731-54.857L421.02 128z"/></svg>