<svg xmlns="http://www.w3.org/2000/svg" width="512" height="512"><path d="M188.263 124.441a41.973 41.973 0 00-8.671 1.04v36.143c0 6.98 5.62 12.6 12.6 12.6h37.92a41.973 41.973 0 00-11.552-37.504 41.973 41.973 0 00-30.297-12.279zm-.906-54.725a96.834 96.834 0 00-7.765.433v32.997a64.744 64.744 0 0154.022 18.355 64.744 64.744 0 0118.565 52.723H285.297a96.834 96.834 0 00-28.025-76.227 96.834 96.834 0 00-69.915-28.281zm113.101-15.06A159.279 159.279 0 00179.593 8.405v40.242a119.001 119.001 0 0192.385 34.49 119.001 119.001 0 0134.505 91.09h40.28a159.279 159.279 0 00-46.305-119.57zM90.711 346.647h148.563c6.98 0 12.6 5.618 12.6 12.598v11.292c0 6.98-5.62 12.6-12.6 12.6H90.711c-6.98 0-12.6-5.62-12.6-12.6v-11.292c0-6.98 5.62-12.599 12.6-12.599zm0-53.867h148.563c6.98 0 12.6 5.62 12.6 12.6v11.29c0 6.98-5.62 12.6-12.6 12.6H90.711c-6.98 0-12.6-5.62-12.6-12.6v-11.29c0-6.98 5.62-12.6 12.6-12.6zM438.667 395.3a39.096 39.096 0 01-39.096 39.096 39.096 39.096 0 01-39.097-39.096 39.096 39.096 0 0139.097-39.097 39.096 39.096 0 0139.096 39.097zM74.203 144.213a12.57 12.57 0 00-12.598 12.599v59.158h-6.748C24.571 215.97 0 240.541 0 270.827v178.134c0 30.286 24.571 54.857 54.857 54.857h402.286c30.286 0 54.857-24.571 54.857-54.857V270.827c0-30.286-24.571-54.857-54.857-54.857h-336.46v-59.158a12.57 12.57 0 00-12.598-12.599zm-15.72 117.51h395.035a12.742 12.742 0 0112.768 12.77v170.805a12.74 12.74 0 01-12.768 12.768H58.482a12.74 12.74 0 01-12.768-12.768V274.492c0-7.073 5.695-12.77 12.768-12.77z"/></svg>