<svg xmlns="http://www.w3.org/2000/svg" width="512" height="512"><path d="M357.867 102.356l80.177 80.177c3.378 3.378 3.378 8.89 0 12.267L243.911 388.933l-82.489 9.156c-11.022 1.244-20.355-8.089-19.11-19.111l9.155-82.49L345.6 102.357c3.378-3.378 8.889-3.378 12.267 0zm144-20.356l-43.378-43.378c-13.511-13.51-35.467-13.51-49.067 0L377.956 70.09c-3.378 3.378-3.378 8.889 0 12.267l80.177 80.177c3.378 3.378 8.89 3.378 12.267 0l31.467-31.466c13.51-13.6 13.51-35.556 0-49.067zM341.333 336.133v90.49H56.89V142.177h204.267c2.844 0 5.51-1.156 7.555-3.111l35.556-35.556c6.755-6.755 1.955-18.222-7.556-18.222H42.667C19.11 85.289 0 104.4 0 127.956v312.888c0 23.556 19.111 42.667 42.667 42.667h312.889c23.555 0 42.666-19.111 42.666-42.667V300.578c0-9.511-11.466-14.222-18.222-7.556l-35.556 35.556c-1.955 2.044-3.11 4.71-3.11 7.555z"/></svg>