<svg xmlns="http://www.w3.org/2000/svg" viewBox="0 0 512 512"><path d="M256 0C132.333 0 32 32.857 32 73.143v45.714c0 22.99 32.691 43.552 83.729 56.977C143.627 127.19 196.1 94.43 255.998 94.43c36.133 0 69.567 12.058 96.531 32.19l7.51-7.513c10.015-10.015 25.23-12.066 36.727-7.304 11.496 4.762 20.804 16.971 20.804 31.135v26.519c38.65-13.156 62.43-30.995 62.43-50.6V73.143C480 32.857 379.667 0 256 0zM32 176v102.857c0 19.605 23.78 37.445 62.43 50.6v-36.924c0-18.376 15.323-33.701 33.699-33.701h8.285l.002.002h68.24c14.163 0 26.375 9.306 31.137 20.803 4.762 11.497 2.708 26.711-7.307 36.726l-7.193 7.194c10.593 5.476 22.382 8.356 34.777 8.345 35.063-.031 65.217-24.046 73.545-57.27 2.944-11.751 13.763-20.364 26.053-20.364h32.71c16.387 0 29.443 15.603 26.395 31.793v.002a160.252 160.252 0 01-18.275 49.709C447.404 322.346 480 301.812 480 278.857V176c-16.599 11.431-37.973 20.74-62.43 28.049v15.418c0 18.376-15.325 33.699-33.7 33.699h-76.528c-14.163 0-26.372-9.306-31.135-20.803-1.046-2.525-1.743-5.235-2.12-8.025a729.4 729.4 0 01-18.087.234c-22.75 0-45.514-1.046-67.602-3.16a74.933 74.933 0 00-6.013 15.951l-.002.008c-2.944 11.753-13.764 20.362-26.051 20.362h-32.713c-16.386 0-29.438-15.602-26.394-31.787v-.006a160.033 160.033 0 015.017-19.657C74.516 198.673 50.342 188.633 32 176zm223.93 4.098a75.712 75.712 0 00-38.246 10.388A669.653 669.653 0 00256 192c10.836 0 21.479-.27 31.904-.758l2.801-2.799c-10.592-5.475-22.378-8.356-34.773-8.345zM32 336v102.857C32 479.143 132.333 512 256 512s224-32.857 224-73.143V336c-27.89 19.207-69.217 32.443-116.111 40.195C335.244 401.918 297.396 417.57 256 417.57c-36.133 0-69.565-12.059-96.53-32.19l-7.511 7.51c-10.015 10.016-25.23 12.067-36.727 7.305-11.496-4.762-20.802-16.97-20.802-31.134v-5.012C69.973 356.74 48.599 347.43 32 336zm289.488-150.055c-17.846-16.71-41.005-25.87-65.575-25.848-44.217.039-82.39 30.357-92.93 72.412-.766 3.062-3.494 5.224-6.65 5.224H123.62c-4.28 0-7.531-3.886-6.74-8.093 12.352-65.59 69.94-115.21 139.119-115.21 37.932 0 72.379 14.919 97.795 39.208l20.388-20.388c8.63-8.63 23.388-2.518 23.388 9.688v76.528c0 7.566-6.134 13.7-13.7 13.7h-76.528c-12.206 0-18.319-14.757-9.688-23.388zM128.13 278.834h76.527c12.206 0 18.319 14.757 9.688 23.388l-23.833 23.833c17.846 16.71 41.007 25.87 65.577 25.848 44.194-.04 82.382-30.337 92.927-72.411.767-3.062 3.495-5.224 6.651-5.224h32.712c4.28 0 7.532 3.886 6.74 8.093C382.767 347.95 325.18 397.57 256 397.57c-37.932 0-72.379-14.92-97.795-39.209l-20.388 20.388c-8.63 8.63-23.388 2.518-23.388-9.688v-76.528c0-7.566 6.134-13.7 13.7-13.7z"/></svg>