<svg xmlns="http://www.w3.org/2000/svg" viewBox="0 0 512 512"><path d="M176 64c-8.837 0-16 7.163-16 16v32c0 8.837 7.163 16 16 16h177.137c8.836 0 16-7.163 16-16V80c0-8.837-7.164-16-16-16zm0 320c-8.837 0-16 7.163-16 16v32c0 8.837 7.163 16 16 16h89.518c8.836 0 16-7.163 16-16v-32c0-8.837-7.164-16-16-16zM48 368a48 48 0 00-33.94 81.94A48 48 0 0096 416c0-26.51-21.49-48-48-48zm128-144c-8.837 0-16 7.163-16 16v32c0 8.837 7.163 16 16 16h177.137c8.836 0 16-7.163 16-16v-32c0-8.837-7.164-16-16-16zM48 208a48 48 0 00-33.94 81.94A48 48 0 0096 256c0-26.51-21.49-48-48-48zm0-160a48 48 0 00-33.94 81.94A48 48 0 0096 96c0-26.51-21.49-48-48-48zm464 .148l-91.59 27.049a24.877 24.877 0 00-17.423 23.718v266.283c-8.146-1.977-16.495-3-24.877-3.047-41.203 0-74.633 22.28-74.633 49.754 0 27.474 33.43 49.756 74.633 49.756 41.204 0 74.633-22.282 74.633-49.756V167.181l59.258-17.361z"/></svg>