<svg xmlns="http://www.w3.org/2000/svg" viewBox="0 0 512 512"><path d="m 494.707,259.438 h -23.491 a 5.946,5.946 0 0 0 -5.946,6.229 l 1.982,41.008 a 122.597,122.597 0 0 0 -93.61,-43.273 c -67.716,0 -122.934,55.264 -122.885,122.979 0.05,67.824 55.05,122.79 122.885,122.79 a 122.438,122.438 0 0 0 82.342,-31.668 5.946,5.946 0 0 0 0.238,-8.636 L 439.375,452.02 a 5.946,5.946 0 0 0 -8.117,-0.273 87.208,87.208 0 1 1 14.776,-114.119 l -50.308,-2.413 a 5.946,5.946 0 0 0 -6.228,5.946 v 23.492 a 5.946,5.946 0 0 0 5.946,5.946 h 99.263 a 5.946,5.946 0 0 0 5.946,-5.946 v -99.269 a 5.946,5.946 0 0 0 -5.946,-5.946 z M 224.852,0 C 134.72,0 11.347,21.355 11.347,93.035 v 325.908 c 0,71.723 132.46,93.057 213.505,93.057 9.997,0 20.81,-0.37 32.04,-1.1 a 170.728,170.728 0 0 1 -32.698,-41.574 c -72.72,-0.127 -170.18,-21.471 -170.18,-55.758 v -43.52 c 39.972,25.34 95.584,35.564 149.815,37.58 a 170.727,170.727 0 0 1 -1.588,-21.632 170.73,170.73 0 0 1 1.483,-21.203 C 134.469,361.217 54.014,340.762 54.014,309.609 v -50.431 c 45.142,28.608 110.294,37.972 170.838,37.972 0.861,0 1.728,-0.015 2.59,-0.02 a 170.728,170.728 0 0 1 39.53,-44.962 c -15.16,1.538 -29.655,2.316 -42.12,2.316 -73.087,-0.02 -170.837,-21.482 -170.837,-55.785 v -50.582 c 45.163,28.63 110.293,37.975 170.837,37.975 60.352,0 125.354,-9.345 170.495,-37.975 v 50.604 c 0,6.284 -3.102,12.027 -8.534,17.24 a 170.728,170.728 0 0 1 51.202,12.258 V 93.057 C 438.015,21.334 310.762,0 224.852,0 Z m -0.002,42.668 h 0.002 c 77.611,0 170.495,19.391 170.495,50.367 0,33.728 -108.885,50.37 -170.496,50.37 -72.788,0.02 -170.836,-19.309 -170.836,-50.37 0,-33.792 102.655,-50.367 170.836,-50.367 z"/></svg>