<svg xmlns="http://www.w3.org/2000/svg" viewBox="0 0 512 512"><path d="m 364.285,208.00006 c -26.51,0 -48,21.49 -48,47.99999 a 47.999,47.998988 0 1 0 48,-47.99999 z m 147.602,0.01 c -26.348,0.19 -47.649,21.59799 -47.649,47.98998 a 47.999,47.998988 0 0 0 29.631,44.34399 47.924,47.923989 0 0 0 18.018,3.646 z M 230.068,25.93011 C 137.017,25.93411 53.128,81.990096 17.52,167.95907 -18.09,253.92805 1.593,352.88204 67.389,418.68202 133.189,484.477 232.142,504.16 318.111,468.55101 a 229.827,229.82694 0 0 0 58.573,-35.24199 L 199.375,256.00005 376.684,78.691097 C 336.874,45.737105 285.786,25.93011 230.068,25.93011 Z" fill="#bebebe"/></svg>