<svg xmlns="http://www.w3.org/2000/svg" width="512" height="512"><path d="M495.933 111.933l-95.866-95.866A54.857 54.857 0 00361.277 0H54.858C24.56 0 0 24.56 0 54.857v402.286C0 487.44 24.56 512 54.857 512h402.286C487.44 512 512 487.44 512 457.143v-306.42a54.857 54.857 0 00-16.067-38.79zM256 438.857c-40.395 0-73.143-32.747-73.143-73.143 0-40.395 32.748-73.143 73.143-73.143s73.143 32.748 73.143 73.143c0 40.396-32.748 73.143-73.143 73.143zM365.714 90.834v114.88c0 7.574-6.14 13.715-13.714 13.715H86.857c-7.574 0-13.714-6.141-13.714-13.715V86.857c0-7.574 6.14-13.714 13.714-13.714h261.166a13.71 13.71 0 019.697 4.017l3.977 3.977a13.71 13.71 0 014.017 9.697z"/></svg>