<svg xmlns="http://www.w3.org/2000/svg" width="512" height="512"><path d="M270.545 238.56h15.716c6.431 0 11.61 5.178 11.61 11.61v20.369a11.585 11.585 0 01-11.61 11.609h-15.716a11.584 11.584 0 01-11.61-11.61V250.17c0-6.432 5.178-11.61 11.61-11.61zm0 78.98h15.716c6.431 0 11.61 5.178 11.61 11.61v20.369c0 6.431-5.179 11.61-11.61 11.61h-15.716a11.584 11.584 0 01-11.61-11.61v-20.37c0-6.43 5.178-11.609 11.61-11.609zm0 78.98h139.401c6.432 0 11.61 5.178 11.61 11.61v20.37c0 6.43-5.178 11.608-11.61 11.608h-139.4a11.584 11.584 0 01-11.61-11.609V408.13c0-6.432 5.177-11.61 11.61-11.61zm221.343-133.315v6.38H390.793V168.492h6.38a25.274 25.274 0 0117.871 7.402l69.44 69.44a25.276 25.276 0 017.404 17.872zm-278.01-94.714c-13.96 0-25.274 11.315-25.274 25.274v292.961c0 13.959 11.315 25.274 25.273 25.274h252.737c13.958 0 25.274-11.315 25.274-25.274V303.284h-109.52c-13.9 0-25.273-11.373-25.273-25.274V168.491zm34.907 39.027h74.219v114.363c0 10.061 8.232 18.291 18.293 18.291h108.7V454.68c0 10.102-8.188 18.293-18.29 18.293H248.784c-10.103 0-18.291-8.19-18.291-18.293V225.81c0-10.102 8.188-18.293 18.29-18.293zM188.604 0c-24.892 0-46.658 13.574-58.33 33.698H45.385c-13.958 0-25.274 11.315-25.274 25.274v353.831c0 13.959 11.316 25.274 25.274 25.274h109.52V193.765c0-32.518 26.455-58.972 58.971-58.972h143.218V58.972c0-13.959-11.316-25.274-25.274-25.274h-84.887C235.262 13.574 213.494 0 188.604 0zm0 42.123c13.958 0 25.273 11.315 25.273 25.273 0 13.959-11.315 25.274-25.273 25.274-13.959 0-25.274-11.315-25.274-25.274 0-13.958 11.315-25.273 25.274-25.273z"/></svg>