<svg xmlns="http://www.w3.org/2000/svg" viewBox="0 0 512 512"><path d="m 504.971,359.02893 c 9.373,9.37301 9.373,24.56902 0,33.94103 l -80,79.98403 C 409.961,487.964 384,477.444 384,455.98299 v -39.98302 h -58.785 a 12.004,12.004007 0 0 1 -8.773,-3.812 L 245.886,336.59192 299.219,279.4489 352,335.99992 h 32 V 296.0189 c 0,-21.43801 25.943,-31.99801 40.971,-16.97101 z M 12,175.99984 h 84 l 52.781,56.55102 53.333,-57.14302 -70.556,-75.596044 a 11.999,11.999007 0 0 0 -8.773,-3.812002 H 12 c -6.627,0 -12,5.372996 -12,12.000006 v 56.00003 c 0,6.62701 5.373,12.00001 12,12.00001 z m 372,0 v 39.98402 c 0,21.46001 25.961,31.98001 40.971,16.971 l 80,-79.98403 c 9.373,-9.37301 9.373,-24.56902 0,-33.94103 l -80,-79.981037 C 409.943,24.020755 384,34.581761 384,56.018772 v 39.981022 h -58.785 a 12.004,12.004007 0 0 0 -8.773,3.812002 L 96,335.99992 H 12 c -6.627,0 -12,5.373 -12,12.00001 v 56.00003 c 0,6.627 5.373,12.00001 12,12.00001 h 110.785 c 3.326,0 6.503,-1.38101 8.773,-3.812 L 352,175.99984 Z" fill="#bebebe"/></svg>