<svg xmlns="http://www.w3.org/2000/svg" width="512" height="512"><path d="M 495.933,111.933 400.067,16.067 A 54.857,54.857 0 0 0 361.277,0 H 54.858 C 24.56,0 0,24.56 0,54.857 V 457.143 C 0,487.44 24.56,512 54.857,512 H 457.143 C 487.44,512 512,487.44 512,457.143 v -306.42 a 54.857,54.857 0 0 0 -16.067,-38.79 z M 256,438.857 c -40.395,0 -73.143,-32.747 -73.143,-73.143 0,-40.395 32.748,-73.143 73.143,-73.143 40.395,0 73.143,32.748 73.143,73.143 0,40.396 -32.748,73.143 -73.143,73.143 z M 365.714,90.834 v 114.88 c 0,7.574 -6.14,13.715 -13.714,13.715 H 86.857 c -7.574,0 -13.714,-6.141 -13.714,-13.715 V 86.857 c 0,-7.574 6.14,-13.714 13.714,-13.714 h 261.166 a 13.71,13.71 0 0 1 9.697,4.017 l 3.977,3.977 a 13.71,13.71 0 0 1 4.017,9.697 z" fill="#bebebe"/></svg>