<svg xmlns="http://www.w3.org/2000/svg" viewBox="0 0 512 512"><path d="M494.707 259.438h-23.491a5.946 5.946 0 00-5.946 6.229l1.982 41.008a122.597 122.597 0 00-93.61-43.273c-67.716 0-122.934 55.264-122.885 122.979.05 67.824 55.05 122.79 122.885 122.79a122.438 122.438 0 0082.342-31.668 5.946 5.946 0 00.238-8.636l-16.847-16.847a5.946 5.946 0 00-8.117-.273 87.208 87.208 0 1114.776-114.119l-50.308-2.413a5.946 5.946 0 00-6.228 5.946v23.492a5.946 5.946 0 005.946 5.946h99.263a5.946 5.946 0 005.946-5.946v-99.269a5.946 5.946 0 00-5.946-5.946zM224.852 0C134.72 0 11.347 21.355 11.347 93.035v325.908c0 71.723 132.46 93.057 213.505 93.057 9.997 0 20.81-.37 32.04-1.1a170.728 170.728 0 01-32.698-41.574c-72.72-.127-170.18-21.471-170.18-55.758v-43.52c39.972 25.34 95.584 35.564 149.815 37.58a170.727 170.727 0 01-1.588-21.632 170.73 170.73 0 011.483-21.203c-69.255-3.576-149.71-24.031-149.71-55.184v-50.431c45.142 28.608 110.294 37.972 170.838 37.972.861 0 1.728-.015 2.59-.02a170.728 170.728 0 0139.53-44.962c-15.16 1.538-29.655 2.316-42.12 2.316-73.087-.02-170.837-21.482-170.837-55.785v-50.582c45.163 28.63 110.293 37.975 170.837 37.975 60.352 0 125.354-9.345 170.495-37.975v50.604c0 6.284-3.102 12.027-8.534 17.24a170.728 170.728 0 0151.202 12.258V93.057C438.015 21.334 310.762 0 224.852 0zm-.002 42.668h.002c77.611 0 170.495 19.391 170.495 50.367 0 33.728-108.885 50.37-170.496 50.37-72.788.02-170.836-19.309-170.836-50.37 0-33.792 102.655-50.367 170.836-50.367z"/></svg>