<svg xmlns="http://www.w3.org/2000/svg" width="512" height="512"><path d="m 270.545,238.56 h 15.716 c 6.431,0 11.61,5.178 11.61,11.61 v 20.369 a 11.585,11.585 0 0 1 -11.61,11.609 h -15.716 a 11.584,11.584 0 0 1 -11.61,-11.61 V 250.17 c 0,-6.432 5.178,-11.61 11.61,-11.61 z m 0,78.98 h 15.716 c 6.431,0 11.61,5.178 11.61,11.61 v 20.369 c 0,6.431 -5.179,11.61 -11.61,11.61 h -15.716 a 11.584,11.584 0 0 1 -11.61,-11.61 v -20.37 c 0,-6.43 5.178,-11.609 11.61,-11.609 z m 0,78.98 h 139.401 c 6.432,0 11.61,5.178 11.61,11.61 v 20.37 c 0,6.43 -5.178,11.608 -11.61,11.608 h -139.4 a 11.584,11.584 0 0 1 -11.61,-11.609 V 408.13 c 0,-6.432 5.177,-11.61 11.61,-11.61 z M 491.888,263.205 v 6.38 H 390.793 V 168.492 h 6.38 a 25.274,25.274 0 0 1 17.871,7.402 l 69.44,69.44 a 25.276,25.276 0 0 1 7.404,17.872 z m -278.01,-94.714 c -13.96,0 -25.274,11.315 -25.274,25.274 v 292.961 c 0,13.959 11.315,25.274 25.273,25.274 h 252.737 c 13.958,0 25.274,-11.315 25.274,-25.274 V 303.284 h -109.52 c -13.9,0 -25.273,-11.373 -25.273,-25.274 V 168.491 Z m 34.907,39.027 h 74.219 v 114.363 c 0,10.061 8.232,18.291 18.293,18.291 h 108.7 V 454.68 c 0,10.102 -8.188,18.293 -18.29,18.293 H 248.784 c -10.103,0 -18.291,-8.19 -18.291,-18.293 V 225.81 c 0,-10.102 8.188,-18.293 18.29,-18.293 z M 188.604,0 c -24.892,0 -46.658,13.574 -58.33,33.698 H 45.385 c -13.958,0 -25.274,11.315 -25.274,25.274 v 353.831 c 0,13.959 11.316,25.274 25.274,25.274 h 109.52 V 193.765 c 0,-32.518 26.455,-58.972 58.971,-58.972 H 357.094 V 58.972 c 0,-13.959 -11.316,-25.274 -25.274,-25.274 H 246.933 C 235.262,13.574 213.494,0 188.604,0 Z m 0,42.123 c 13.958,0 25.273,11.315 25.273,25.273 0,13.959 -11.315,25.274 -25.273,25.274 -13.959,0 -25.274,-11.315 -25.274,-25.274 0,-13.958 11.315,-25.273 25.274,-25.273 z" fill="#bebebe"/></svg>