<svg xmlns="http://www.w3.org/2000/svg" xmlns:xlink="http://www.w3.org/1999/xlink" xml:space="preserve" width="512" height="512" viewBox="0 0 135.467 135.467"><defs><linearGradient id="k"><stop offset="0" style="stop-color:#acdfff;stop-opacity:.77334082"/><stop offset=".189" style="stop-color:#fff;stop-opacity:0"/><stop offset=".497" style="stop-color:#fff;stop-opacity:0"/><stop offset=".619" style="stop-color:#67b8ff;stop-opacity:.4989751"/><stop offset=".735" style="stop-color:#fff;stop-opacity:0"/><stop offset=".863" style="stop-color:#dadada;stop-opacity:.03438272"/><stop offset=".935" style="stop-color:#78b8ff;stop-opacity:.78521425"/><stop offset=".98" style="stop-color:#efefef;stop-opacity:0"/></linearGradient><linearGradient id="j"><stop offset="0" style="stop-color:#55affc;stop-opacity:1"/><stop offset="1" style="stop-color:#0c62ff;stop-opacity:1"/></linearGradient><linearGradient id="d"><stop offset="0" style="stop-color:#6b2416;stop-opacity:1"/><stop offset="1" style="stop-color:#200d00;stop-opacity:1"/></linearGradient><linearGradient id="c"><stop offset="0" style="stop-color:#ffe864;stop-opacity:1"/><stop offset="1" style="stop-color:#e79c4e;stop-opacity:1"/></linearGradient><linearGradient id="b"><stop offset=".484" style="stop-color:#fff;stop-opacity:1"/><stop offset="1" style="stop-color:#000;stop-opacity:1"/></linearGradient><linearGradient xlink:href="#d" id="r" x1="87.703" x2="84.555" y1="19.113" y2="53.547" gradientTransform="matrix(.9511 0 0 .9511 -2.661 -.82)" gradientUnits="userSpaceOnUse"/><linearGradient xlink:href="#d" id="q" x1="53.423" x2="41.026" y1="31.334" y2="68.518" gradientTransform="matrix(.9511 0 0 .9511 -2.661 -.82)" gradientUnits="userSpaceOnUse"/><linearGradient xlink:href="#d" id="o" x1="52.671" x2="38.353" y1="43.271" y2="88.778" gradientTransform="matrix(.9511 0 0 .9511 -2.661 -.82)" gradientUnits="userSpaceOnUse"/><linearGradient xlink:href="#d" id="p" x1="52.726" x2="41.546" y1="41.716" y2="75.197" gradientTransform="matrix(.9511 0 0 .9511 -2.661 -.82)" gradientUnits="userSpaceOnUse"/><linearGradient xlink:href="#d" id="n" x1="98.258" x2="101.909" y1="22.925" y2="54.124" gradientTransform="matrix(.9511 0 0 .9511 -2.661 -.82)" gradientUnits="userSpaceOnUse"/><linearGradient id="g" x1="56" x2="0" y1="252" y2="244" gradientTransform="translate(8 -156)" gradientUnits="userSpaceOnUse"><stop offset="0" style="stop-color:#fff;stop-opacity:1"/><stop offset="1" style="stop-color:#fff;stop-opacity:0"/></linearGradient><linearGradient xlink:href="#j" id="m" x1="-111.357" x2="-111.357" y1="-69.134" y2="19.318" gradientUnits="userSpaceOnUse"/><linearGradient xlink:href="#k" id="l" x1="25.053" x2="136.829" y1="73.171" y2="73.171" gradientTransform="matrix(.9511 0 0 .9511 1.112 -.82)" gradientUnits="userSpaceOnUse"/><radialGradient xlink:href="#b" id="a" cx="67.733" cy="105.595" r="60.872" fx="67.733" fy="105.595" gradientTransform="matrix(1.7997 0 0 .21596 -54.166 69.578)" gradientUnits="userSpaceOnUse"/><radialGradient xlink:href="#c" id="s" cx="81.905" cy="64.13" r="34.799" fx="81.905" fy="64.13" gradientTransform="matrix(.9511 0 0 1.2077 -2.661 -21.383)" gradientUnits="userSpaceOnUse"/><radialGradient xlink:href="#d" id="t" cx="75.717" cy="3.533" r="39.729" fx="75.717" fy="3.533" gradientTransform="matrix(.96755 .00847 -.00363 .41434 1.28 9.86)" gradientUnits="userSpaceOnUse"/><clipPath id="f"><path d="M0 0h192v152H0z"/></clipPath><clipPath id="i"><path d="M0 0h192v152H0z"/></clipPath><filter id="e" width="1" height="1" x="0" y="0" filterUnits="objectBoundingBox"><feColorMatrix in="SourceGraphic" values="0 0 0 0 1 0 0 0 0 1 0 0 0 0 1 0 0 0 1 0"/></filter><filter id="h" width="1" height="1" x="0" y="0" filterUnits="objectBoundingBox"><feColorMatrix in="SourceGraphic" values="0 0 0 0 1 0 0 0 0 1 0 0 0 0 1 0 0 0 1 0"/></filter></defs><path d="M99.438 121.278c11.83 16.948 18.387-27.133 8.085-39.521" style="fill:none;fill-opacity:1;stroke:#000;stroke-width:2.01315;stroke-dasharray:none;stroke-dashoffset:18.5507;stroke-opacity:1"/><path d="m129.276 72.19-98.418 56.822c-2.63 1.518-5.918-.38-5.918-3.417V11.952c0-3.037 3.288-4.935 5.918-3.417L131.243 63.84s-.024 3.546.005 4.845a3.911 3.911 0 0 1-1.972 3.505z" style="fill:#024ec1;fill-opacity:1;stroke:none;stroke-width:5.78588;stroke-linecap:round;stroke-linejoin:round;stroke-dashoffset:18.5507;paint-order:markers stroke fill"/><path d="m129.276 72.19-98.418 56.822c-2.63 1.518-5.918-.38-5.918-3.417V11.952c0-3.037 3.288-4.935 5.918-3.417L131.243 63.84s-.024 3.546.005 4.845a3.911 3.911 0 0 1-1.972 3.505z" style="fill:url(#l);fill-opacity:1;stroke:none;stroke-width:5.78588;stroke-linecap:round;stroke-linejoin:round;stroke-dashoffset:18.5507;paint-order:markers stroke fill"/><path d="m-71.58-22.526-72.008 41.574a2.887 2.887 30 0 1-4.33-2.5V-66.6a2.887 2.887 150 0 1 4.33-2.5l72.009 41.574a2.887 2.887 90 0 1 0 5z" style="fill:#0364f7;fill-opacity:1;stroke:none;stroke-width:4.23333;stroke-linecap:round;stroke-linejoin:round;stroke-dashoffset:18.5507;paint-order:markers stroke fill" transform="matrix(1.36675 0 0 1.36675 227.106 98.448)"/><path d="m-71.58-22.526-72.008 41.574a2.887 2.887 30 0 1-4.33-2.5V-66.6a2.887 2.887 150 0 1 4.33-2.5l72.009 41.574a2.887 2.887 90 0 1 0 5z" style="fill:url(#m);fill-opacity:1;stroke:none;stroke-width:4.23333;stroke-linecap:round;stroke-linejoin:round;stroke-dashoffset:18.5507;paint-order:markers stroke fill" transform="matrix(1.28687 0 0 1.28687 217.323 96.449)"/><path d="m89.683 33.934 9.175-4.825s3.938 14.553-6.645 24.535c-10.583 9.983-2.53-19.71-2.53-19.71z" style="fill:url(#n);fill-opacity:1;stroke:none;stroke-width:2.01315;stroke-dasharray:none;stroke-dashoffset:18.5507;stroke-opacity:1"/><path d="M58.86 44.541C6.58 49.818 1.486 66.358 25.856 104.123c.148-9.108.214-10.42.214-10.42C38.29 83.482 41.85 76.46 41.85 76.46c5.212-11.32 4.298-24.203 4.298-24.203s13.395-2.33 12.714-7.716z" style="fill:url(#o);fill-opacity:1;stroke:none;stroke-width:2.01315;stroke-dasharray:none;stroke-dashoffset:18.5507;stroke-opacity:1"/><path d="M43.06 51.192s-27.309 7.116-1.434 25.71c8.805-17.02 1.434-25.71 1.434-25.71z" style="fill:url(#p);fill-opacity:1;stroke:none;stroke-width:2.01315;stroke-dasharray:none;stroke-dashoffset:18.5507;stroke-opacity:1"/><path d="M11.985 74.876c-33.93-34.436 37.513-41.983 55.956-39.35-1.593 17.551-60.798 1.575-55.956 39.35Z" style="fill:url(#q);fill-opacity:1;stroke:none;stroke-width:2.01315;stroke-dasharray:none;stroke-dashoffset:18.5507;stroke-opacity:1"/><path d="M5.556 49.21C-.74 6.578 92.38 37.204 102.061 21.733c.811 22.987-66.486 3.766-96.505 27.477Z" style="fill:url(#r);fill-opacity:1;stroke:none;stroke-width:2.01315;stroke-dasharray:none;stroke-dashoffset:18.5507;stroke-opacity:1"/><path d="M98.9 29.043c-.111.021-.2.361-.194 1.818.008 1.556.05 4.318-.283 7.483a31.985 31.985 0 0 1-2.443 9.343c-.323.75-.666 1.505-1.087 2.288-.923 1.715-1.897 2.92-2.61 3.629.83-.516 2.203-1.39 3.588-2.936a13.662 13.662 0 0 0 1.62-2.214c.296-.506.568-1.045.816-1.615 1.174-2.697 1.638-5.657 1.805-8.355.206-3.322-.186-6.182-.522-7.722-.318-1.458-.61-1.734-.69-1.719z" style="fill:#210707;fill-opacity:1;fill-rule:nonzero;stroke:none;stroke-width:1.69493;stroke-linejoin:bevel;stroke-dasharray:none;stroke-dashoffset:18.5507;stroke-opacity:1"/><path d="M75.609 96.579s-8.804-10.152-5.736-18.604c2.735 1.089 11.279 1.904 12.972.765 1.936-1.302 3.576-2.866 3.576-2.866l-.064-2.938s-.091-1.328 1.045-2.346c1.453-1.3 1.38-3.586 1.38-3.586s1.548-.176 1.548-1.424c0-1.247-.575-2.384-.501-3.207l3.684-2.68c.216-2.513-1.395-5.95-1.395-5.95.347-.213-1.837-4.243-2.018-8.134-.158-3.411 1.872-6.281-.223-12.236-14.969 4.519-15.266 1.523-21.524 2.217-1.07 4.37-8.995 8.413-8.995 8.413-.924 4.147-3.055 6.665-16.639 7.899 0 0-.237 5.472 2.895 7.39 2.915 17.844-17.855 33.284-18.971 34.364-.43 5.28-2.258 22.863 1.726 29.081 15.682-4.276 32.898-17.541 47.24-26.158z" style="fill:url(#s);fill-opacity:1;stroke:none;stroke-width:1.69493;stroke-linejoin:bevel;stroke-dasharray:none;stroke-dashoffset:18.5507;stroke-opacity:1"/><path d="M70.245 77.402c-.116-.024-.559.286-.887 1.762-.262 1.18-.45 3.09-.261 5.477.13 1.631.393 4.08 1.422 6.574 1.175 2.847 3.043 4.788 4.171 5.25.542.223.914-.036 1.08-.05-.033-.176.12-.57-.14-1.04-.454-.824-2.166-2.646-3.235-4.975a19.35 19.35 0 0 1-1.61-5.912c-.206-2.012-.157-4.256-.175-5.195-.027-1.44-.212-1.859-.365-1.89z" style="fill:#e48d17;fill-opacity:1;fill-rule:nonzero;stroke:none;stroke-width:1.69493;stroke-linejoin:bevel;stroke-dasharray:none;stroke-dashoffset:18.5507;stroke-opacity:1"/><path d="M68.072 35.948c-.05-.006-.197-.075-.296-.034-.232.097-.444.765-.912 1.618-.23.418-.525.88-.934 1.362-.625.735-1.508 1.505-2.837 2.265-1.118.638-2.491 1.235-4.193 1.8-1.564.52-3.321.985-5.29 1.43-3.83.865-8.197 1.591-12.508 2.42-5.056.97-9.14 1.92-12.882 3.17-1.856.62-3.866 1.393-5.813 2.384-1.74.886-3.45 1.957-4.993 3.278-1.468 1.257-2.772 2.73-3.815 4.475-1.035 1.732-1.786 3.687-2.204 5.888-.432 2.273-.497 4.741-.208 7.399.315 2.89 1.04 5.922 2.083 9.033 3.705 11.037 11.5 22.64 12.688 23.474.263.184.282-.178.338-.214.057-.036.392.103.338-.214-.24-1.426-7.607-13.17-11.11-23.795-.99-3.001-1.677-5.863-1.995-8.55-.292-2.466-.264-4.706.076-6.737.328-1.962.941-3.695 1.802-5.237.868-1.556 1.98-2.903 3.277-4.081 1.365-1.24 2.915-2.275 4.544-3.148 1.82-.975 3.73-1.743 5.531-2.349 3.6-1.21 7.666-2.099 12.674-2.978 4.245-.746 8.732-1.412 12.61-2.233 2.016-.427 3.854-.891 5.51-1.433 1.802-.59 3.32-1.25 4.581-2.005 1.514-.907 2.565-1.899 3.273-2.923.46-.667.749-1.312.921-1.888.351-1.169.242-1.985.04-2.142-.085-.066-.249-.03-.296-.035zM70.537 40.035c.093.158.51.443 1.446.222.173-.041.362-.1.572-.171.983-.335 2.322-.912 3.915-1.105a10.44 10.44 0 0 1 2.427.003c.862.098 1.689.292 2.505.558.35.114.692.239 1.03.372a15.69 15.69 0 0 1 1.634.737c1.287.681 2.29 1.519 2.89 2.154-.399-.736-1.052-1.965-2.162-3.108a8.202 8.202 0 0 0-1.598-1.295 7.744 7.744 0 0 0-1.167-.58c-.958-.381-1.967-.575-2.978-.637-.987-.06-1.924.01-2.784.114-1.768.214-3.358.603-4.4 1.091-.223.104-.416.21-.579.32-.895.606-.83 1.193-.751 1.325z" style="fill:#210707;fill-opacity:1;fill-rule:nonzero;stroke:none;stroke-width:1.69493;stroke-linejoin:bevel;stroke-dasharray:none;stroke-dashoffset:18.5507;stroke-opacity:1"/><path d="M42.547 52.061c-.132-.005-.596.014-.773.342-.131.244-.166.777-.07 1.599.066.547.188 1.187.375 1.838.205.71.462 1.349.764 1.924.334.635.754 1.238 1.327 1.704a3.645 3.645 0 0 0 2.222.833c.357.01.717-.029 1.075-.114.535-.129 1.099-.38 1.684-.735 1.266-.77 2.4-1.89 3.108-2.56-.876.522-2.239 1.164-3.564 1.448a7.31 7.31 0 0 1-1.47.17 5.049 5.049 0 0 1-.712-.037 3.221 3.221 0 0 1-.682-.158 2.495 2.495 0 0 1-.563-.285c-.348-.236-.67-.586-.929-1.063-.23-.424-.408-.957-.538-1.564a14.682 14.682 0 0 1-.235-1.606c-.075-.744-.105-1.178-.25-1.407-.179-.28-.635-.324-.769-.329z" style="fill:#e48d17;fill-opacity:1;fill-rule:nonzero;stroke:none;stroke-width:1.69493;stroke-linejoin:bevel;stroke-dasharray:none;stroke-dashoffset:18.5507;stroke-opacity:1"/><path d="M59.295 43.92c-.059.02-.228-.026-.354.12-.265.304-.601 1.544-1.263 2.669-.375.639-.835 1.213-1.441 1.689-.505.395-1.104.719-1.843.97-.681.232-1.453.393-2.342.504-1.757.22-3.705.219-5.831.32-2.419.115-4.499.352-6.515.952-.692.205-1.573.546-2.564 1.06-.886.46-1.87 1.063-2.842 1.818a15.6 15.6 0 0 0-2.63 2.566c-.786.986-1.443 2.099-1.864 3.327a9.083 9.083 0 0 0-.44 4.034c.18 1.529.737 3.023 1.613 4.458 1.044 1.713 2.489 3.258 4.075 4.605 3.025 2.568 6.348 4.262 7.11 4.391.385.065.194-.331.233-.397.04-.068.475-.095.233-.398-.476-.596-3.558-2.546-6.265-5.07-1.432-1.337-2.67-2.75-3.549-4.236-.73-1.233-1.164-2.436-1.313-3.612a7.256 7.256 0 0 1 .282-3.122c.307-.977.808-1.904 1.452-2.77a13.77 13.77 0 0 1 2.229-2.324 16.568 16.568 0 0 1 2.506-1.723c.884-.494 1.65-.81 2.221-.983 1.808-.548 3.748-.75 6.098-.826 1.996-.064 4.128-.033 5.982-.252.975-.116 1.884-.3 2.721-.595.918-.324 1.706-.768 2.369-1.346a6.499 6.499 0 0 0 1.698-2.35c.636-1.473.687-2.865.535-3.253-.072-.186-.25-.19-.3-.226z" style="fill:#210707;fill-opacity:1;fill-rule:nonzero;stroke:none;stroke-width:1.69493;stroke-linejoin:bevel;stroke-dasharray:none;stroke-dashoffset:18.5507;stroke-opacity:1"/><path d="M89.333 32.693c-.07.039-.212.192-.052.805.102.387.35 1.063.615 2.099.184.72.369 1.624.417 2.589.045.891-.027 1.822-.312 2.711-.767 2.475-.93 4.662-.764 6.587.176 2.024.718 3.74 1.263 5.11l.032.079c.543 1.352 1.193 2.61 1.664 3.662.23.513.407.961.515 1.356.107.392.132.686.1.914a1 1 0 0 1-.11.326c-.06.116-.148.238-.266.365-.245.263-.597.52-1.037.754a7.913 7.913 0 0 1-1.509.595 9.676 9.676 0 0 1-1.664.323c-.586.06-1.09.054-1.498.009a4.265 4.265 0 0 1-.587-.104 2.85 2.85 0 0 1-.552-.2 1.97 1.97 0 0 1-.21-.12.953.953 0 0 1-.28-.278 1.312 1.312 0 0 1-.19-.559 2.281 2.281 0 0 1 .07-.862c-.134.178-.356.455-.518.77a2.052 2.052 0 0 0-.236.795c-.018.256.02.533.146.808.077.168.182.328.316.475.059.064.124.127.195.188.199.17.442.32.73.444.252.11.536.197.85.262.555.113 1.201.151 1.91.102a10.098 10.098 0 0 0 2-.348 9.04 9.04 0 0 0 1.864-.741c.558-.303 1.087-.683 1.496-1.148.203-.23.38-.485.516-.766.135-.28.226-.585.257-.909.05-.532-.05-1.061-.207-1.564-.16-.509-.394-1.037-.649-1.563-.588-1.218-1.134-2.179-1.71-3.561l-.03-.073c-.526-1.279-1.034-2.842-1.212-4.675-.169-1.738-.045-3.74.643-6.045.322-1.102.365-2.21.274-3.213a12.319 12.319 0 0 0-.615-2.825c-.367-1.076-.762-1.792-.98-2.11-.382-.554-.632-.494-.685-.464z" style="fill:#e48d17;fill-opacity:1;fill-rule:nonzero;stroke:none;stroke-width:1.69493;stroke-linejoin:bevel;stroke-dasharray:none;stroke-dashoffset:18.5507;stroke-opacity:1"/><path d="M72.127 47.596c.246.4.648 1.13 1.355 1.72.325.272.68.482 1.04.613.237.086.488.145.748.178.605.079 1.213.017 1.805-.103.567-.116 1.13-.287 1.625-.414.508-.13 1.009-.23 1.477-.296.493-.07.88-.091 1.254-.104l.449-.015c.22-.009.454-.03.732-.015.633.034 1.21.26 1.588.52-.173-.362-.455-1.05-1.065-1.603a2.765 2.765 0 0 0-.933-.566 2.951 2.951 0 0 0-.69-.148c-.557-.054-1.121.03-1.675.16-.54.128-1.061.299-1.557.425-.5.128-1.004.221-1.492.276a10.7 10.7 0 0 1-1.37.061c-.18-.002-.36-.007-.533-.012-.27-.006-.553-.006-.89-.045-.755-.087-1.431-.355-1.868-.632z" style="fill:#210707;fill-opacity:1;fill-rule:nonzero;stroke:none;stroke-width:1.69493;stroke-linejoin:bevel;stroke-dasharray:none;stroke-dashoffset:18.5507;stroke-opacity:1"/><path d="M89.97 62.239a3.32 3.32 0 0 0-.563 1.28l-.005.023c-.084.437-.09.709-.131 1.178a2.917 2.917 0 0 1-.06.426c-.03.115-.065.188-.103.222-.039.035-.063.017-.08.008-.02-.013-.032-.01-.099.023l-.018.01c-.142.076-.354.17-.66.269a9.864 9.864 0 0 1-1.082.277c-.853.173-1.825.281-2.783.311a14.74 14.74 0 0 1-2.842-.169 11.502 11.502 0 0 1-1.228-.255c-.522-.146-.861-.316-1.058-.46.105.207.298.582.763.988.318.278.729.538 1.226.743.781.322 1.831.57 3.103.662 1.045.075 2.138.037 3.117-.11a9.29 9.29 0 0 0 1.316-.286 4.532 4.532 0 0 0 1.064-.46c.223-.143.421-.332.563-.57.137-.23.2-.47.211-.699a1.905 1.905 0 0 0-.071-.598 4.404 4.404 0 0 0-.177-.503c-.165-.406-.281-.663-.36-1.007a9.09 9.09 0 0 0-.004-.02c-.117-.53-.11-.946-.04-1.283z" style="fill:#e48d17;fill-opacity:1;fill-rule:nonzero;stroke:none;stroke-width:1.69493;stroke-linejoin:bevel;stroke-dasharray:none;stroke-dashoffset:18.5507;stroke-opacity:1"/><path d="M26.577 93.31v25.518l94.386-54.494-24.426-14.687M38.282 15.013 26.577 8.371v17.753" style="fill:none;stroke:none;stroke-width:2.01315;stroke-linejoin:round;stroke-dasharray:none;stroke-dashoffset:18.5507;stroke-opacity:1"/><path d="M44.488 51.972s-.472 3.953 3.203 4.175c1.914.115 1.44-4.598 1.44-4.598" style="fill:#000;fill-opacity:1;stroke:none;stroke-width:2.01315;stroke-dasharray:none;stroke-dashoffset:18.5507;stroke-opacity:1"/><path d="M87.464 16.266s7.893-4.788 11.363-3.21c3.471 1.578 3.876 5.975 3.513 7.8-2.127 10.712-64.886 2.467-75.465 4.818 29.25-31.852 60.589-9.408 60.589-9.408z" style="fill:url(#t);fill-opacity:1;stroke:none;stroke-width:2.01315;stroke-dasharray:none;stroke-dashoffset:18.5507;stroke-opacity:1"/><path d="M90.584 20.428a7.937 7.937 0 0 0-.86-1.943 12.516 12.516 0 0 0-1.572-2.058 17.97 17.97 0 0 0-2.767-2.401 24.59 24.59 0 0 0-2.33-1.453c-3.702-2.041-9.151-3.931-15.81-4.566-4.913-.467-12.008-.546-20.032 2.264a45.572 45.572 0 0 0-13.181 7.274c-3.577 2.83-6 5.63-6.557 6.703-.302.582-.12.886-.141 1.057.174-.037.482.117 1.038-.211 1.023-.604 3.588-3.083 7.085-5.697 3.656-2.733 7.771-5.206 12.526-7.018 7.535-2.87 14.352-3.167 19.095-2.685 6.41.652 11.578 2.689 15.113 4.502.816.418 1.573.84 2.272 1.251a35.94 35.94 0 0 1 2.892 1.873c.758.552 1.38 1.069 1.886 1.55.71.674 1.125 1.214 1.343 1.558z" style="fill:#210707;fill-opacity:1;fill-rule:nonzero;stroke:none;stroke-width:1.69493;stroke-linejoin:bevel;stroke-dasharray:none;stroke-dashoffset:18.5507;stroke-opacity:1"/><path d="M87.217 16.174c.061.093.317.202 1.583-.336l.583-.253c.826-.362 2.56-1.138 4.355-1.61a12.957 12.957 0 0 1 2.412-.416c.765-.05 1.512-.007 2.199.173a4.227 4.227 0 0 1 1.774.93c.506.453.963 1.088 1.312 1.983.26.666.387 1.27.41 1.817a3.92 3.92 0 0 1-.223 1.508 4.38 4.38 0 0 1-.78 1.33 6.925 6.925 0 0 1-1.335 1.2c-.967.682-2.326 1.324-4.156 1.858-1.597.466-3.453.82-5.504 1.051-2.908.368-6.455.41-10.482.264-4.021-.146-8.471-.478-13.088-.832-9.923-.763-19.663-1.536-28.813-1.202-4.906.18-9.33.672-13.248 1.566-4.406 1.004-7.993 2.476-10.843 4.404-1.625 1.098-2.97 2.318-4.074 3.629a17.787 17.787 0 0 0-2.858 4.72c-.84 2.041-1.238 4.058-1.404 5.83-.238 2.536-.005 4.664.186 5.576.194.925.488 1.13.575 1.322.057-.236.28-.437.372-1.375.078-.795.144-3.073.53-5.303.286-1.644.76-3.45 1.593-5.242a16.631 16.631 0 0 1 2.678-4.083c1.002-1.124 2.215-2.18 3.688-3.14 2.588-1.689 5.897-3.034 10.092-3.975 3.734-.838 7.998-1.319 12.804-1.505 9.004-.348 18.574.36 28.556 1.054 4.615.321 9.11.619 13.186.727 4.072.109 7.752.03 10.822-.401 2.133-.328 4.079-.783 5.776-1.35 1.943-.647 3.445-1.4 4.588-2.207a8.604 8.604 0 0 0 1.66-1.5 6.05 6.05 0 0 0 1.072-1.846c.239-.67.35-1.39.313-2.154-.036-.758-.215-1.544-.538-2.354-.441-1.111-1.048-1.97-1.78-2.607a5.782 5.782 0 0 0-2.47-1.254c-.904-.218-1.833-.241-2.715-.16-.942.088-1.862.299-2.689.551a20.454 20.454 0 0 0-4.482 2.011c-.213.13-.398.25-.554.358-1.177.81-1.12 1.185-1.083 1.243z" style="fill:#210707;fill-opacity:1;fill-rule:nonzero;stroke:none;stroke-width:1.69493;stroke-linejoin:bevel;stroke-dasharray:none;stroke-dashoffset:18.5507;stroke-opacity:1"/><path d="M101.785 21.463c.115.204.226.527.25.912a2.84 2.84 0 0 1-.075.82 5.12 5.12 0 0 1-.253.774 6.521 6.521 0 0 1-.407.837c-.302.525-.78 1.192-1.56 1.952-.677.658-1.585 1.388-2.79 2.137-2.205 1.37-5.355 2.766-9.644 3.813-4.281 1.045-9.412 1.671-15.365 1.687-4.657.012-14.186.047-24.37.893-4.61.384-9.468.94-14.216 1.753-4.698.805-9.227 1.851-13.304 3.21-4.206 1.4-7.85 3.107-10.733 5.175-1.518 1.089-2.813 2.269-3.867 3.544-1.12 1.354-1.953 2.794-2.502 4.31a13.538 13.538 0 0 0-.788 5.052c.058 1.935.494 3.837 1.165 5.653.836 2.264 2.03 4.375 3.267 6.196 2.094 3.083 4.344 5.39 5.147 5.995.543.41.754.269.907.322-.034-.157.127-.346-.19-.938-.504-.938-2.374-3.347-4.19-6.44-1.07-1.818-2.077-3.821-2.763-5.899-.548-1.662-.874-3.318-.894-4.943-.017-1.423.2-2.805.69-4.142.45-1.228 1.131-2.423 2.078-3.58.894-1.092 2.016-2.141 3.381-3.142 2.604-1.91 5.985-3.567 10.036-4.98 3.919-1.367 8.316-2.454 12.932-3.313 4.66-.868 9.45-1.487 14.016-1.928 10.152-.982 19.493-1.116 24.198-1.103 6.062.015 11.333-.548 15.793-1.56 4.465-1.011 7.85-2.412 10.287-3.893 1.332-.81 2.37-1.638 3.155-2.437.91-.924 1.482-1.807 1.804-2.594.154-.375.25-.726.3-1.048.014-.087.024-.173.031-.259a3.127 3.127 0 0 0-.131-1.22 2.65 2.65 0 0 0-.561-.977c-.31-.342-.648-.529-.834-.64z" style="fill:#210707;fill-opacity:1;fill-rule:nonzero;stroke:none;stroke-width:1.69493;stroke-linejoin:bevel;stroke-dasharray:none;stroke-dashoffset:18.5507;stroke-opacity:1"/><path d="M45.458 59.175c-.041.011-.062.095-.051.604.011.522.042 1.33-.003 2.398-.017.404-.043.8-.077 1.19-.135 1.528-.59 3.857-1.361 6.437-.662 2.215-2.165 6.099-5.586 10.72-2.21 2.985-4.73 5.638-7.431 8.133-2.549 2.355-4.777 4.126-5.123 4.706-.195.328.175.409.21.49.065.059.021.438.398.354.666-.148 3.125-1.713 5.858-4.032 2.86-2.427 5.559-5.275 7.796-8.41 3.521-4.935 4.873-9.136 5.508-11.5.776-2.885.78-5.17.71-6.876a19.74 19.74 0 0 0-.088-1.238c-.114-1.098-.302-1.927-.47-2.432-.165-.495-.26-.552-.29-.544z" style="fill:#e48d17;fill-opacity:1;fill-rule:nonzero;stroke:none;stroke-width:1.69493;stroke-linejoin:bevel;stroke-dasharray:none;stroke-dashoffset:18.5507;stroke-opacity:1"/><path d="M24.94 93.83v26.732c0 3.037 3.288 4.935 5.918 3.417l98.418-56.822a3.945 3.945 0 0 0 1.878-2.609h-4.109a3.715 3.715 0 0 1-1.835 2.913l-92.665 53.5c-2.477 1.43-5.572-.357-5.572-3.217V92.202Z" style="fill:#0364f7;fill-opacity:1;stroke:none;stroke-width:5.78588;stroke-linecap:round;stroke-linejoin:round;stroke-dashoffset:18.5507;paint-order:markers stroke fill"/><path d="M47.303 54.57c2.729 21.353 18.573 42.394 35.638 50.775" style="fill:none;stroke:#000;stroke-width:2.01315;stroke-dasharray:none;stroke-dashoffset:18.5507;stroke-opacity:1"/><path d="M95.576 99.124C94.893 91.107 84.66 84.54 81.87 78.911" style="fill:none;fill-opacity:1;stroke:#000;stroke-width:2.01315;stroke-dasharray:none;stroke-dashoffset:18.5507;stroke-opacity:1"/><path d="M93.027 99.108c-.291 2.242-.734 4.506-.572 6.702-.064.577.49 1.211-.006 1.759-.442.554-1.408.74-1.813.039-1.594-1.45-3.644-2.252-5.552-3.198-.433-.12-1.055-.753-1.233-.014-.536.833-1.04 1.685-1.552 2.534 2.846 1.138 5.769 2.23 8.293 4.008 1.556.928 2.265 2.642 3.076 4.17 1.235 2.127 2.328 4.401 3.602 6.465 1.12-.702 2.386-1.214 3.466-1.954-1.68-3.104-3.437-6.178-5.034-9.329-.798-2.74-.201-5.621.209-8.375.173-.92.369-1.835.556-2.752-1.137.01-2.322-.065-3.44-.056z" style="color:#000;fill:#d50000;fill-opacity:1;stroke:#920000;stroke-width:4.02629;stroke-linecap:round;stroke-linejoin:round;stroke-dasharray:none;stroke-dashoffset:18.5507;stroke-opacity:1;paint-order:markers stroke fill"/><path d="M88.571 67.32c-.027.042-.006.172.021.398a1.062 1.062 0 0 1-.06.54 2.007 2.007 0 0 1-.156.315 3.547 3.547 0 0 1-.326.455c-.268.322-.75.811-1.682 1.464a.65.93 1.549 0 0-.289.39 6.099 6.099 0 0 0-.405 1.961c-.03.584.002 1.107-.004 1.544-.004.221-.015.415-.04.597a2.265 2.265 0 0 1-.38 1.003c-.123.18-.283.367-.494.566-.14.133-.35.275-.638.415-.301.145-.664.275-1.079.387-.728.196-1.57.322-2.457.385-.231.017-.467.029-.708.037-1.28.041-2.66-.04-4.06-.237a28.302 28.302 0 0 1-4.485-1.01c-3.486-1.088-6.359-2.72-8.602-4.605-.452-.38-.876-.767-1.274-1.16-.821-.81-1.564-1.66-2.231-2.572-1.436-1.963-2.215-3.829-2.59-5.03.189 1.211.554 3.283 1.707 5.568a15.803 15.803 0 0 0 2.01 3.05c.39.464.816.92 1.28 1.364 2.308 2.214 5.414 4.022 9.135 5.19 1.553.487 3.17.847 4.791 1.07a26.79 26.79 0 0 0 4.377.252c.262-.008.522-.02.777-.036.973-.063 1.942-.199 2.82-.43.5-.132.98-.299 1.413-.506.41-.196.8-.439 1.122-.741.298-.28.556-.575.767-.89a4.026 4.026 0 0 0 .669-1.84c.032-.291.037-.574.03-.841-.014-.537-.068-1.023-.073-1.489-.005-.42.025-.823.128-1.245.864-.701 1.367-1.3 1.66-1.799l.033-.057c.158-.28.262-.551.316-.811.057-.278.054-.53.008-.752a1.388 1.388 0 0 0-.24-.546 1.123 1.123 0 0 0-.334-.304c-.298-.173-.439-.08-.457-.05z" style="fill:#e48d17;fill-opacity:1;fill-rule:nonzero;stroke:none;stroke-width:1.69493;stroke-linejoin:bevel;stroke-dasharray:none;stroke-dashoffset:18.5507;stroke-opacity:1"/></svg>