<svg xmlns="http://www.w3.org/2000/svg" width="512" height="512" viewBox="0 0 135.467 135.467"><path fill-opacity=".882" fill="#daf7ff" d="M57.704 111.36c12.54.662 22.195 4.765 22.195 9.727 0 5.422-11.533 9.818-25.76 9.818-14.226 0-25.76-4.396-25.76-9.818 0-4.845 9.203-8.869 21.307-9.673l.124-1.1c.741-5.566.703-25.058.703-25.058L5.92 35.52l-1.918-2.838c0-5.703 22.238-10.327 49.67-10.327 27.433 0 49.671 4.624 49.671 10.327l-1.92 2.838-44.59 49.737s-.039 19.494.702 25.058z"/><path fill="#31e0ff" d="M53.666 50.187a28.963 5.78 0 012.892.029c-.951-.02-1.916-.029-2.892-.029zm0 0c-.639 0-1.27.006-1.9.014a28.963 5.78 0 011.9-.014zm2.892.029a28.963 5.78 0 0113.458.98c-3.905-.534-8.496-.882-13.458-.98zm-5.074-.011c-.903.013-1.794.035-2.672.064a28.963 5.78 0 012.672-.064zm-2.83.07c-.918.032-1.821.073-2.707.122a28.963 5.78 0 012.706-.122zm-2.767.125c-.925.051-1.83.111-2.715.18a28.963 5.78 0 012.715-.18zm-2.715.18c-.89.07-1.76.146-2.605.232a28.963 5.78 0 012.605-.232zm-2.684.24a96.41 96.41 0 00-2.362.27 28.963 5.78 0 012.362-.27zm-2.565.296c-.74.096-1.458.2-2.15.308a28.963 5.78 0 012.15-.308zm32.106.082a28.963 5.78 0 012.225.337 76.111 76.111 0 00-2.225-.337zm-34.45.256c-.682.109-1.338.224-1.968.345a28.963 5.78 0 011.969-.345zm36.866.114a28.963 5.78 0 011.904.354 60.12 60.12 0 00-1.904-.354zm-39.033.269c-.637.124-1.244.255-1.822.39a28.963 5.78 0 011.822-.39zm41.151.13a28.963 5.78 0 011.704.387 45.177 45.177 0 00-1.704-.387zm-43.088.287c-.59.14-1.148.287-1.671.438a28.963 5.78 0 011.671-.438zm44.972.146a28.963 5.78 0 011.544.431 31.956 31.956 0 00-1.544-.431zm-46.701.309c-3.18.927-5.042 2.048-5.043 3.257a28.963 5.78 0 015.043-3.257zm-5.043 3.257c.004.138.033.275.07.398a28.963 5.78 0 01-.07-.398zm53.376-3.108a28.963 5.78 0 011.372.477c-.42-.163-.878-.322-1.372-.477zm1.42.496a28.963 5.78 0 011.157.516 12.877 12.877 0 00-1.157-.516zm1.165.52a28.963 5.78 0 01.905.544 7.146 7.146 0 00-.905-.544zm.912.549a28.963 5.78 0 01.98 1.133c-.138-.39-.474-.769-.98-1.133zm.98 1.138a28.963 5.78 0 01.073.405 1.23 1.23 0 00-.072-.405zm.073.405a28.963 5.78 0 01-.413.932l.288-.323c.011-.052.115-.356.125-.609zm-57.852.412c.041.13.092.241.133.317l.187.209a28.963 5.78 0 01-.32-.526zm.412.627c.541.608 25.324 28.25 25.324 28.25s.038 19.495-.703 25.058c-.741 5.564-2.02 8.372-2.02 8.372s3.922 1.555 5.882 1.555c1.96 0 5.883-1.555 5.883-1.555s-1.28-2.806-2.02-8.372c-.74-5.563-.703-25.058-.703-25.058s23.48-26.197 25.124-28.066a28.963 5.78 0 01-28.29 4.557 28.963 5.78 0 01-28.477-4.74z"/><ellipse fill="#95efff" cx="53.666" cy="55.966" rx="28.963" ry="5.779"/><path stroke-width="2.478" stroke="#107ff0" fill="none" d="M57.704 111.36c12.54.662 22.195 4.765 22.195 9.727v0c0 5.422-11.533 9.818-25.76 9.818-14.226 0-25.76-4.396-25.76-9.818 0-4.845 9.203-8.869 21.307-9.673M5.92 35.519l44.593 49.737s.038 19.492-.703 25.058c-.741 5.563-2.02 8.373-2.02 8.373s3.922 1.552 5.883 1.552c1.96 0 5.882-1.552 5.882-1.552s-1.279-2.808-2.02-8.373c-.741-5.564-.703-25.058-.703-25.058l44.592-49.737m1.919-2.838a49.67 10.327 0 01-49.67 10.328A49.67 10.327 0 014.002 32.68a49.67 10.327 0 0149.67-10.327 49.67 10.327 0 0149.671 10.327z"/><circle fill="#f8ffbe" r="28.151" cy="32.681" cx="103.343"/><g fill="#e8ff31"><path d="M100.504 3.388c-8.854.908-16.731 5.65-21.725 13.103-1.838 2.754-3.56 6.853-4.214 10.08-.495 2.435-.586 3.388-.586 6.086 0 2.698.091 3.63.586 6.085.643 3.181 2.365 7.293 4.213 10.082 5.523 8.256 14.734 13.228 24.538 13.228 11.091 0 21.312-6.35 26.284-16.317 4.983-10 3.915-21.76-2.8-30.704-4.652-6.201-11.519-10.277-19.35-11.482-1.435-.218-5.476-.322-6.947-.161zm6.66 1.987c4.925.735 9.656 2.79 13.479 5.879 5.431 4.374 9.037 10.839 10.012 17.959.092.608.161 2.124.161 3.445 0 2.48-.126 3.674-.586 5.855-.643 3.032-2.204 6.716-3.927 9.301-4.49 6.729-11.447 11.068-19.541 12.182-1.413.207-5.477.207-6.89 0-5.123-.7-9.968-2.778-13.883-5.935-5.432-4.375-9.025-10.83-10.025-17.96-.195-1.423-.195-5.592.012-6.946 1.321-9.036 6.443-16.477 14.25-20.726 3.343-1.813 6.489-2.744 11.024-3.26.838-.092 4.81.045 5.913.206z"/><path d="M98.437 7.569c-4.995.929-10.875 3.972-11.987 6.2-.31.631-.345 1.355-.092 1.86.826 1.584 5.281 5.866 11.561 11.127 3.377 2.825 4.25 3.524 4.319 3.467.229-.24.379-18.086.16-20.496-.138-1.55-.23-1.803-.712-2.056-.505-.275-2.067-.322-3.249-.102zm7.796.172c-.275.092-.414.229-.552.574-.24.608-.493 2.205-.643 4.133-.275 3.617-.446 15.525-.253 17.212l.08.632 2.987-2.538c7.464-6.316 11.77-10.31 12.895-11.941.528-.759.161-1.963-.93-2.987-1.298-1.226-4.536-3.042-7.12-3.984-2.537-.941-5.418-1.423-6.464-1.102zM82.935 18.178c-1.343.609-2.95 3.181-4.052 6.498-.897 2.652-1.034 4.422-.46 5.547.402.78 1.124 1.114 2.79 1.308 1.458.174 13.056.207 16.626.046l2.17-.091-.333-.345c-.173-.194-1.608-1.515-3.193-2.95-7.807-7.085-11.768-10.23-12.86-10.23-.125 0-.435.102-.688.217zm39.051.195c-2.032 1.217-8.726 6.992-14.478 12.482l-.92.872 10.518.011c10.38 0 10.53 0 10.817-.229.483-.38.597-.92.597-2.871 0-1.917-.139-2.881-.61-4.19-.608-1.71-1.962-4.089-3.007-5.26-.551-.62-1.515-1.228-1.952-1.228-.16 0-.597.184-.965.413zM110.7 33.565c-2.159.035-3.938.092-3.973.126-.092.103 6.383 6.062 9.736 8.945 3.433 2.961 5.304 4.361 6.143 4.615 1.436.437 3.238-1.653 4.709-5.43 1.457-3.72 1.63-6.143.527-7.246-.436-.436-.895-.597-2.251-.77-1.067-.137-7.533-.344-9.644-.322-.723.013-3.088.046-5.247.082zm-31.99.24c-.495.39-.598.907-.598 2.928 0 2.538.277 3.71 1.413 5.97 1.09 2.206 2.252 3.722 3.284 4.307.758.436 1.033.436 1.86-.07 2.101-1.251 8.176-6.371 14.743-12.411l.632-.586-1.55-.068c-1.343-.059-16.396-.299-18.67-.299-.643 0-.884.046-1.115.23zm22.08 2.102c-8.037 6.74-13.353 11.539-14.685 13.261-.38.506-.47.712-.47 1.09.01 1.54 1.812 3.158 5.544 5.007 1.919.942 3.365 1.493 5.225 1.975 1.103.298 1.585.367 2.676.38 1.573.01 1.723-.07 1.998-1.012.218-.78.482-2.915.632-5.235.125-1.803.31-15.812.217-16.2-.035-.14-.332.045-1.137.734zm3.905-.643c0 .115-.08 1.86-.174 3.88-.423 9.267-.446 16.995-.068 17.993.38 1 2.734 1.01 6.097.034 3.56-1.045 7.085-2.859 8.727-4.523.884-.885 1.148-1.39 1.148-2.16 0-.47-.08-.7-.436-1.251-1.195-1.837-5.373-5.879-11.46-11.08-2.503-2.136-3.662-3.089-3.767-3.089-.034 0-.067.092-.067.196z"/></g><path fill="#00d42a" d="M121.243 32.681l-14.334 8.275-14.332 8.274V16.131l14.332 8.275z"/><path stroke-width="2.478" stroke="#107ff0" fill-opacity=".833" fill="#fff" d="M83.675 55.317l17.068-19.75-.037.007c-3.731 2.71-14.066 5.15-26.07 6.463"/><path stroke-width="1.239" stroke="#107ff0" fill="none" d="M26.407 26.77c7.827-1.07 17.196-1.692 27.266-1.692m20.454 99.232c-4.723 2.212-11.923 3.624-19.987 3.624"/><path fill-opacity=".941" fill="#fff" d="M63.325 67.754l5.649-20.912 15.565-1.999z"/></svg>