<svg xmlns="http://www.w3.org/2000/svg" width="512" height="512" viewBox="0 0 135.467 135.467"><path d="m 57.704,111.36002 c 12.539999,0.66199 22.195,4.765 22.195,9.72699 0,5.42199 -11.533001,9.81799 -25.760001,9.81799 -14.226,0 -25.759999,-4.396 -25.759999,-9.81799 0,-4.845 9.203,-8.869 21.307,-9.67299 l 0.124,-1.1 c 0.741,-5.566 0.703,-25.057978 0.703,-25.057978 L 5.9199995,35.520087 4.0019994,32.682089 c 0,-5.702994 22.2380006,-10.32699 49.6700006,-10.32699 27.433,0 49.671,4.623996 49.671,10.32699 l -1.92,2.837998 -44.59,49.736955 c 0,0 -0.039,19.493978 0.702,25.057978 z" fill="#daf7ff" fill-opacity=".882"/><path d="m 53.666,50.187073 a 28.963,5.7799948 0 0 1 2.892,0.02901 c -0.951,-0.02 -1.916,-0.02901 -2.892,-0.02901 z m 0,0 c -0.639001,0 -1.27,0.006 -1.9,0.014 a 28.963,5.7799948 0 0 1 1.9,-0.014 z m 2.892,0.02901 a 28.963,5.7799948 0 0 1 13.458,0.979999 C 66.111,50.662073 61.52,50.314073 56.558,50.216074 Z m -5.074,-0.011 c -0.903,0.013 -1.794,0.035 -2.672,0.064 a 28.963,5.7799948 0 0 1 2.672,-0.064 z m -2.83,0.06999 c -0.918,0.032 -1.821,0.07301 -2.707001,0.122 a 28.963,5.7799948 0 0 1 2.706001,-0.122 z m -2.767001,0.125001 c -0.925,0.051 -1.83,0.111 -2.714999,0.179999 a 28.963,5.7799948 0 0 1 2.714999,-0.179999 z M 43.172,50.580075 c -0.89,0.07 -1.76,0.146 -2.605,0.232001 a 28.963,5.7799948 0 0 1 2.605,-0.232001 z m -2.684,0.24 a 96.41,96.409913 0 0 0 -2.362,0.27 28.963,5.7799948 0 0 1 2.362,-0.27 z m -2.565001,0.296 c -0.739999,0.096 -1.457999,0.2 -2.15,0.307999 a 28.963,5.7799948 0 0 1 2.15,-0.307999 z m 32.106001,0.082 A 28.963,5.7799948 0 0 1 72.253999,51.535077 76.111,76.110931 0 0 0 70.029,51.198078 Z m -34.45,0.256 c -0.682001,0.109 -1.338,0.224 -1.968,0.344999 a 28.963,5.7799948 0 0 1 1.969,-0.344999 z m 36.865999,0.114 a 28.963,5.7799948 0 0 1 1.904,0.353999 60.12,60.119946 0 0 0 -1.904,-0.353999 z M 33.412,51.837072 c -0.637001,0.124 -1.244,0.255 -1.822,0.39 a 28.963,5.7799948 0 0 1 1.822,-0.39 z m 41.151,0.13 a 28.963,5.7799948 0 0 1 1.704,0.386999 45.177001,45.176959 0 0 0 -1.704,-0.386999 z m -43.088,0.287 c -0.590001,0.14 -1.148,0.287 -1.671001,0.438 a 28.963,5.7799948 0 0 1 1.671001,-0.438 z m 44.971999,0.146 A 28.963,5.7799948 0 0 1 77.991,52.831071 31.956001,31.955971 0 0 0 76.446999,52.400072 Z m -46.701,0.308999 c -3.18,0.927 -5.042,2.047999 -5.043,3.256997 a 28.963,5.7799948 0 0 1 5.043,-3.256997 z m -5.043,3.256997 c 0.004,0.138001 0.033,0.275 0.07,0.398 a 28.963,5.7799948 0 0 1 -0.07,-0.398 z M 78.079,52.858071 a 28.963,5.7799948 0 0 1 1.371999,0.477 c -0.419999,-0.163 -0.878,-0.322 -1.371999,-0.477 z m 1.419999,0.496 a 28.963,5.7799948 0 0 1 1.157001,0.516 12.877,12.876988 0 0 0 -1.157001,-0.516 z m 1.165001,0.52 A 28.963,5.7799948 0 0 1 81.568999,54.418069 7.1460001,7.1459935 0 0 0 80.664,53.874071 Z m 0.911999,0.548998 a 28.963,5.7799948 0 0 1 0.98,1.133 c -0.138,-0.39 -0.473999,-0.769 -0.98,-1.133 z m 0.98,1.138 a 28.963,5.7799948 0 0 1 0.073,0.404999 1.23,1.2299989 0 0 0 -0.072,-0.404999 z m 0.073,0.404999 a 28.963,5.7799948 0 0 1 -0.413,0.932 l 0.287999,-0.323 c 0.011,-0.052 0.115,-0.356 0.125001,-0.609 z m -57.852001,0.412 c 0.041,0.13 0.092,0.241 0.133,0.317 l 0.187001,0.209 a 28.963,5.7799948 0 0 1 -0.320001,-0.526 z m 0.412001,0.627 c 0.540999,0.607999 25.324,28.249974 25.324,28.249974 0,0 0.038,19.494978 -0.703,25.057978 -0.741001,5.564 -2.02,8.37199 -2.02,8.37199 0,0 3.922,1.555 5.882,1.555 1.96,0 5.883,-1.555 5.883,-1.555 0,0 -1.280001,-2.80599 -2.02,-8.37199 -0.74,-5.563 -0.703,-25.057978 -0.703,-25.057978 0,0 23.48,-26.196976 25.124,-28.065974 a 28.963,5.7799948 0 0 1 -28.29,4.556995 28.963,5.7799948 0 0 1 -28.477,-4.739996 z" fill="#31e0ff"/><ellipse cx="53.666" cy="55.966" rx="28.963" ry="5.779" fill="#95efff"/><path d="m 57.704,111.36002 c 12.539999,0.66199 22.195,4.765 22.195,9.72698 v 0 c 0,5.422 -11.533001,9.818 -25.760001,9.818 -14.226,0 -25.759999,-4.396 -25.759999,-9.818 0,-4.84499 9.203,-8.869 21.307,-9.67299 M 5.9199996,35.519064 50.513,85.256031 c 0,0 0.038,19.491979 -0.703,25.057989 -0.741001,5.563 -2.02,8.37299 -2.02,8.37299 0,0 3.922,1.552 5.883,1.552 1.96,0 5.882,-1.552 5.882,-1.552 0,0 -1.279001,-2.80799 -2.02,-8.37299 -0.741,-5.56401 -0.703,-25.057989 -0.703,-25.057989 l 44.592,-49.736967 m 1.919,-2.837998 A 49.669999,10.326992 0 0 1 53.673,43.00906 49.669999,10.326992 0 0 1 4.0019995,32.680067 49.669999,10.326992 0 0 1 53.672,22.353073 49.669999,10.326992 0 0 1 103.343,32.680067 Z" fill="none" stroke="#107ff0" stroke-width="2.478"/><circle cy="32.681" cx="103.343" fill="#f8ffbe" r="28.151"/><g fill="#e8ff31"><path d="m 100.504,3.388 c -8.854,0.908 -16.731,5.65 -21.725,13.103 -1.838,2.754 -3.56,6.853 -4.214,10.08 -0.495,2.435 -0.586,3.388 -0.586,6.086 0,2.698 0.091,3.63 0.586,6.085 0.643,3.181 2.365,7.293 4.213,10.082 5.523,8.256 14.734,13.228 24.538,13.228 11.091,0 21.312,-6.35 26.284,-16.317 4.983,-10 3.915,-21.76 -2.8,-30.704 C 122.148,8.83 115.281,4.754 107.45,3.549 106.015,3.331 101.974,3.227 100.503,3.388 Z m 6.66,1.987 c 4.925,0.735 9.656,2.79 13.479,5.879 5.431,4.374 9.037,10.839 10.012,17.959 0.092,0.608 0.161,2.124 0.161,3.445 0,2.48 -0.126,3.674 -0.586,5.855 -0.643,3.032 -2.204,6.716 -3.927,9.301 -4.49,6.729 -11.447,11.068 -19.541,12.182 -1.413,0.207 -5.477,0.207 -6.89,0 -5.123,-0.7 -9.968,-2.778 -13.883,-5.935 -5.432,-4.375 -9.025,-10.83 -10.025,-17.96 -0.195,-1.423 -0.195,-5.592 0.012,-6.946 1.321,-9.036 6.443,-16.477 14.25,-20.726 3.343,-1.813 6.489,-2.744 11.024,-3.26 0.838,-0.092 4.81,0.045 5.913,0.206 z"/><path d="m 98.437,7.569 c -4.995,0.929 -10.875,3.972 -11.987,6.2 -0.31,0.631 -0.345,1.355 -0.092,1.86 0.826,1.584 5.281,5.866 11.561,11.127 3.377,2.825 4.25,3.524 4.319,3.467 0.229,-0.24 0.379,-18.086 0.16,-20.496 -0.138,-1.55 -0.23,-1.803 -0.712,-2.056 -0.505,-0.275 -2.067,-0.322 -3.249,-0.102 z m 7.796,0.172 c -0.275,0.092 -0.414,0.229 -0.552,0.574 -0.24,0.608 -0.493,2.205 -0.643,4.133 -0.275,3.617 -0.446,15.525 -0.253,17.212 l 0.08,0.632 2.987,-2.538 c 7.464,-6.316 11.77,-10.31 12.895,-11.941 0.528,-0.759 0.161,-1.963 -0.93,-2.987 C 118.519,11.6 115.281,9.784 112.697,8.842 110.16,7.901 107.279,7.419 106.233,7.74 Z M 82.935,18.178 c -1.343,0.609 -2.95,3.181 -4.052,6.498 -0.897,2.652 -1.034,4.422 -0.46,5.547 0.402,0.78 1.124,1.114 2.79,1.308 1.458,0.174 13.056,0.207 16.626,0.046 l 2.17,-0.091 -0.333,-0.345 c -0.173,-0.194 -1.608,-1.515 -3.193,-2.95 -7.807,-7.085 -11.768,-10.23 -12.86,-10.23 -0.125,0 -0.435,0.102 -0.688,0.217 z m 39.051,0.195 c -2.032,1.217 -8.726,6.992 -14.478,12.482 l -0.92,0.872 10.518,0.011 c 10.38,0 10.53,0 10.817,-0.229 0.483,-0.38 0.597,-0.92 0.597,-2.871 0,-1.917 -0.139,-2.881 -0.61,-4.19 -0.608,-1.71 -1.962,-4.089 -3.007,-5.26 -0.551,-0.62 -1.515,-1.228 -1.952,-1.228 -0.16,0 -0.597,0.184 -0.965,0.413 z M 110.7,33.565 c -2.159,0.035 -3.938,0.092 -3.973,0.126 -0.092,0.103 6.383,6.062 9.736,8.945 3.433,2.961 5.304,4.361 6.143,4.615 1.436,0.437 3.238,-1.653 4.709,-5.43 1.457,-3.72 1.63,-6.143 0.527,-7.246 -0.436,-0.436 -0.895,-0.597 -2.251,-0.77 -1.067,-0.137 -7.533,-0.344 -9.644,-0.322 -0.723,0.013 -3.088,0.046 -5.247,0.082 z m -31.99,0.24 c -0.495,0.39 -0.598,0.907 -0.598,2.928 0,2.538 0.277,3.71 1.413,5.97 1.09,2.206 2.252,3.722 3.284,4.307 0.758,0.436 1.033,0.436 1.86,-0.07 2.101,-1.251 8.176,-6.371 14.743,-12.411 l 0.632,-0.586 -1.55,-0.068 c -1.343,-0.059 -16.396,-0.299 -18.67,-0.299 -0.643,0 -0.884,0.046 -1.115,0.23 z m 22.08,2.102 c -8.037,6.74 -13.353,11.539 -14.685,13.261 -0.38,0.506 -0.47,0.712 -0.47,1.09 0.01,1.54 1.812,3.158 5.544,5.007 1.919,0.942 3.365,1.493 5.225,1.975 1.103,0.298 1.585,0.367 2.676,0.38 1.573,0.01 1.723,-0.07 1.998,-1.012 0.218,-0.78 0.482,-2.915 0.632,-5.235 0.125,-1.803 0.31,-15.812 0.217,-16.2 -0.035,-0.14 -0.332,0.045 -1.137,0.734 z m 3.905,-0.643 c 0,0.115 -0.08,1.86 -0.174,3.88 -0.423,9.267 -0.446,16.995 -0.068,17.993 0.38,1 2.734,1.01 6.097,0.034 3.56,-1.045 7.085,-2.859 8.727,-4.523 0.884,-0.885 1.148,-1.39 1.148,-2.16 0,-0.47 -0.08,-0.7 -0.436,-1.251 -1.195,-1.837 -5.373,-5.879 -11.46,-11.08 -2.503,-2.136 -3.662,-3.089 -3.767,-3.089 -0.034,0 -0.067,0.092 -0.067,0.196 z"/></g><path d="m 121.243,32.68109 -14.334,8.274992 -14.332001,8.273993 V 16.131105 L 106.909,24.406097 Z" fill="#00d42a"/><path d="m 83.675,55.317069 17.068,-19.749982 -0.037,0.007 c -3.731,2.709998 -14.066001,5.149995 -26.07,6.462994" fill="#fff" fill-opacity=".833" stroke="#107ff0" stroke-width="2.478"/><path d="m 26.407,26.770095 c 7.827,-1.069999 17.196,-1.691999 27.266,-1.691999 M 74.127,124.31001 C 69.403999,126.522 62.203999,127.934 54.139999,127.934" fill="none" stroke="#107ff0" stroke-width="1.239"/><path d="M 63.324999,67.754058 68.974,46.842077 84.538999,44.843078 Z" fill="#fff" fill-opacity=".941"/></svg>